{"export_path": "", "markers": [], "effects": [], "settings": {}, "height": 720, "clips": [{"perspective_c3_y": {"Points": [{"interpolation": 2, "co": {"X": 1.0, "Y": -1.0}}]}, "alpha": {"Points": [{"interpolation": 2, "co": {"X": 1.0, "Y": 1.0}}]}, "start": 0, "effects": [], "channel_mapping": {"Points": [{"interpolation": 2, "co": {"X": 1.0, "Y": -1.0}}]}, "time": {"Points": [{"interpolation": 1, "co": {"X": 1.0, "Y": 1.0}}, {"interpolation": 1, "co": {"X": 517.0, "Y": 1033.0}}]}, "perspective_c2_x": {"Points": [{"interpolation": 2, "co": {"X": 1.0, "Y": -1.0}}]}, "position": 0, "display": 0, "perspective_c1_x": {"Points": [{"interpolation": 2, "co": {"X": 1.0, "Y": -1.0}}]}, "duration": 70.0, "crop_height": {"Points": [{"interpolation": 2, "co": {"X": 1.0, "Y": -1.0}}]}, "crop_width": {"Points": [{"interpolation": 2, "co": {"X": 1.0, "Y": -1.0}}]}, "layer": 0, "gravity": 4, "has_audio": {"Points": [{"interpolation": 2, "co": {"X": 1.0, "Y": -1.0}}]}, "anchor": 0, "end": 21.541666666666668, "wave_color": {"alpha": {"Points": [{"interpolation": 0, "handle_right": {"X": 0.5, "Y": 0.0}, "handle_left": {"X": 0.5, "Y": 1.0}, "handle_type": 0, "co": {"X": 1.0, "Y": 255.0}}]}, "green": {"Points": [{"interpolation": 0, "handle_right": {"X": 0.5, "Y": 0.0}, "handle_left": {"X": 0.5, "Y": 1.0}, "handle_type": 0, "co": {"X": 1.0, "Y": 123.0}}]}, "red": {"Points": [{"interpolation": 0, "handle_right": {"X": 0.5, "Y": 0.0}, "handle_left": {"X": 0.5, "Y": 1.0}, "handle_type": 0, "co": {"X": 1.0, "Y": 0.0}}]}, "blue": {"Points": [{"interpolation": 0, "handle_right": {"X": 0.5, "Y": 0.0}, "handle_left": {"X": 0.5, "Y": 1.0}, "handle_type": 0, "co": {"X": 1.0, "Y": 255.0}}]}}, "title": "Enscape_2019-03-11-18-17-57.mp4", "perspective_c3_x": {"Points": [{"interpolation": 2, "co": {"X": 1.0, "Y": -1.0}}]}, "shear_x": {"Points": [{"interpolation": 2, "co": {"X": 1.0, "Y": 0.0}}]}, "perspective_c2_y": {"Points": [{"interpolation": 2, "co": {"X": 1.0, "Y": -1.0}}]}, "channel_filter": {"Points": [{"interpolation": 2, "co": {"X": 1.0, "Y": -1.0}}]}, "volume": {"Points": [{"interpolation": 2, "co": {"X": 1.0, "Y": 1.0}}]}, "location_y": {"Points": [{"interpolation": 2, "co": {"X": 1.0, "Y": 0.0}}]}, "file_id": "OPGYZH1CE3", "rotation": {"Points": [{"interpolation": 2, "co": {"X": 1.0, "Y": 0.0}}]}, "reader": {"display_ratio": {"num": 4, "den": 3}, "audio_timebase": {"num": 1, "den": 1}, "height": 768, "path": "Enscape_2019-03-11-18-17-57.mp4", "video_stream_index": 0, "pixel_ratio": {"num": 1, "den": 1}, "duration": 140.1600036621094, "channels": 0, "video_bit_rate": 4184920, "interlaced_frame": false, "has_audio": false, "audio_stream_index": -1, "fps": {"num": 25, "den": 1}, "acodec": "", "pixel_format": 0, "top_field_first": true, "vcodec": "mpeg4", "type": "FFmpegReader", "sample_rate": 0, "file_size": "73319803", "has_single_image": false, "channel_layout": 4, "video_timebase": {"num": 1, "den": 25}, "video_length": "3504", "width": 1024, "audio_bit_rate": 0, "has_video": true}, "perspective_c1_y": {"Points": [{"interpolation": 2, "co": {"X": 1.0, "Y": -1.0}}]}, "scale": 1, "perspective_c4_x": {"Points": [{"interpolation": 2, "co": {"X": 1.0, "Y": -1.0}}]}, "location_x": {"Points": [{"interpolation": 2, "co": {"X": 1.0, "Y": 0.0}}]}, "scale_y": {"Points": [{"interpolation": 2, "co": {"X": 1.0, "Y": 1.0}}]}, "shear_y": {"Points": [{"interpolation": 2, "co": {"X": 1.0, "Y": 0.0}}]}, "waveform": false, "scale_x": {"Points": [{"interpolation": 2, "co": {"X": 1.0, "Y": 1.0}}]}, "id": "GP7FPK11R1", "crop_y": {"Points": [{"interpolation": 2, "co": {"X": 1.0, "Y": 0.0}}]}, "perspective_c4_y": {"Points": [{"interpolation": 2, "co": {"X": 1.0, "Y": -1.0}}]}, "crop_x": {"Points": [{"interpolation": 2, "co": {"X": 1.0, "Y": 0.0}}]}, "image": "..\\..\\..\\..\\..\\Users\\theor\\.openshot_qt\\thumbnail\\OPGYZH1CE3.png", "has_video": {"Points": [{"interpolation": 2, "co": {"X": 1.0, "Y": -1.0}}]}}, {"perspective_c3_y": {"Points": [{"interpolation": 2, "co": {"X": 1.0, "Y": -1.0}}]}, "alpha": {"Points": [{"interpolation": 2, "co": {"X": 1.0, "Y": 1.0}}]}, "start": 0, "effects": [], "channel_mapping": {"Points": [{"interpolation": 2, "co": {"X": 1.0, "Y": -1.0}}]}, "time": {"Points": [{"interpolation": 2, "co": {"X": 1.0, "Y": 1.0}}]}, "perspective_c2_x": {"Points": [{"interpolation": 2, "co": {"X": 1.0, "Y": -1.0}}]}, "position": 0, "display": 0, "perspective_c1_x": {"Points": [{"interpolation": 2, "co": {"X": 1.0, "Y": -1.0}}]}, "duration": 118.0559997558594, "crop_height": {"Points": [{"interpolation": 2, "co": {"X": 1.0, "Y": -1.0}}]}, "crop_width": {"Points": [{"interpolation": 2, "co": {"X": 1.0, "Y": -1.0}}]}, "layer": 1, "gravity": 4, "has_audio": {"Points": [{"interpolation": 2, "co": {"X": 1.0, "Y": -1.0}}]}, "anchor": 0, "end": 118.0559997558594, "wave_color": {"alpha": {"Points": [{"interpolation": 0, "handle_right": {"X": 0.5, "Y": 0.0}, "handle_left": {"X": 0.5, "Y": 1.0}, "handle_type": 0, "co": {"X": 1.0, "Y": 255.0}}]}, "green": {"Points": [{"interpolation": 0, "handle_right": {"X": 0.5, "Y": 0.0}, "handle_left": {"X": 0.5, "Y": 1.0}, "handle_type": 0, "co": {"X": 1.0, "Y": 123.0}}]}, "red": {"Points": [{"interpolation": 0, "handle_right": {"X": 0.5, "Y": 0.0}, "handle_left": {"X": 0.5, "Y": 1.0}, "handle_type": 0, "co": {"X": 1.0, "Y": 0.0}}]}, "blue": {"Points": [{"interpolation": 0, "handle_right": {"X": 0.5, "Y": 0.0}, "handle_left": {"X": 0.5, "Y": 1.0}, "handle_type": 0, "co": {"X": 1.0, "Y": 255.0}}]}}, "title": "Not Recognized-Track2.mp3", "perspective_c3_x": {"Points": [{"interpolation": 2, "co": {"X": 1.0, "Y": -1.0}}]}, "shear_x": {"Points": [{"interpolation": 2, "co": {"X": 1.0, "Y": 0.0}}]}, "perspective_c2_y": {"Points": [{"interpolation": 2, "co": {"X": 1.0, "Y": -1.0}}]}, "channel_filter": {"Points": [{"interpolation": 2, "co": {"X": 1.0, "Y": -1.0}}]}, "volume": {"Points": [{"interpolation": 2, "co": {"X": 1.0, "Y": 1.0}}]}, "location_y": {"Points": [{"interpolation": 2, "co": {"X": 1.0, "Y": 0.0}}]}, "file_id": "5TEJ096RKR", "rotation": {"Points": [{"interpolation": 2, "co": {"X": 1.0, "Y": 0.0}}]}, "reader": {"display_ratio": {"num": 1, "den": 1}, "audio_timebase": {"num": 1, "den": 14112000}, "height": 480, "path": "..\\..\\..\\..\\..\\Users\\theor\\Music\\Replay Music Recordings\\Replay Music 2019-03-12\\Not Recognized-Track2.mp3", "video_stream_index": -1, "pixel_ratio": {"num": 1, "den": 1}, "duration": 118.0559997558594, "channels": 2, "video_bit_rate": 0, "interlaced_frame": false, "has_audio": true, "audio_stream_index": 0, "fps": {"num": 24, "den": 1}, "acodec": "mp3", "pixel_format": -1, "top_field_first": true, "vcodec": "", "type": "FFmpegReader", "sample_rate": 48000, "file_size": "1890566", "has_single_image": false, "channel_layout": 3, "video_timebase": {"num": 1, "den": 24}, "video_length": "2833", "width": 720, "audio_bit_rate": 128000, "has_video": false}, "perspective_c1_y": {"Points": [{"interpolation": 2, "co": {"X": 1.0, "Y": -1.0}}]}, "scale": 1, "perspective_c4_x": {"Points": [{"interpolation": 2, "co": {"X": 1.0, "Y": -1.0}}]}, "location_x": {"Points": [{"interpolation": 2, "co": {"X": 1.0, "Y": 0.0}}]}, "scale_y": {"Points": [{"interpolation": 2, "co": {"X": 1.0, "Y": 1.0}}]}, "shear_y": {"Points": [{"interpolation": 2, "co": {"X": 1.0, "Y": 0.0}}]}, "waveform": false, "scale_x": {"Points": [{"interpolation": 2, "co": {"X": 1.0, "Y": 1.0}}]}, "id": "7P4R5BJNZZ", "crop_y": {"Points": [{"interpolation": 2, "co": {"X": 1.0, "Y": 0.0}}]}, "perspective_c4_y": {"Points": [{"interpolation": 2, "co": {"X": 1.0, "Y": -1.0}}]}, "crop_x": {"Points": [{"interpolation": 2, "co": {"X": 1.0, "Y": 0.0}}]}, "image": "..\\..\\..\\..\\..\\Program Files\\OpenShot Video Editor\\images\\AudioThumbnail.png", "has_video": {"Points": [{"interpolation": 2, "co": {"X": 1.0, "Y": -1.0}}]}}, {"alpha": {"Points": [{"interpolation": 2, "co": {"X": 1.0, "Y": 1.0}}]}, "start": 43.68, "position": 21.54, "perspective_c1_x": {"Points": [{"interpolation": 2, "co": {"X": 1.0, "Y": -1.0}}]}, "crop_height": {"Points": [{"interpolation": 2, "co": {"X": 1.0, "Y": -1.0}}]}, "layer": 0, "gravity": 4, "perspective_c3_x": {"Points": [{"interpolation": 2, "co": {"X": 1.0, "Y": -1.0}}]}, "perspective_c2_y": {"Points": [{"interpolation": 2, "co": {"X": 1.0, "Y": -1.0}}]}, "volume": {"Points": [{"interpolation": 2, "co": {"X": 1.0, "Y": 1.0}}]}, "location_y": {"Points": [{"interpolation": 2, "co": {"X": 1.0, "Y": 0.0}}]}, "file_id": "OPGYZH1CE3", "rotation": {"Points": [{"interpolation": 2, "co": {"X": 1.0, "Y": 0.0}}]}, "reader": {"display_ratio": {"num": 4, "den": 3}, "audio_timebase": {"num": 1, "den": 1}, "height": 768, "path": "Enscape_2019-03-11-18-17-57.mp4", "video_stream_index": 0, "pixel_ratio": {"num": 1, "den": 1}, "duration": 140.1600036621094, "channels": 0, "video_bit_rate": 4184920, "interlaced_frame": false, "has_audio": false, "audio_stream_index": -1, "fps": {"num": 25, "den": 1}, "acodec": "", "pixel_format": 0, "top_field_first": true, "vcodec": "mpeg4", "type": "FFmpegReader", "sample_rate": 0, "file_size": "73319803", "has_single_image": false, "channel_layout": 4, "video_timebase": {"num": 1, "den": 25}, "video_length": "3504", "width": 1024, "audio_bit_rate": 0, "has_video": true}, "perspective_c1_y": {"Points": [{"interpolation": 2, "co": {"X": 1.0, "Y": -1.0}}]}, "scale": 1, "perspective_c4_x": {"Points": [{"interpolation": 2, "co": {"X": 1.0, "Y": -1.0}}]}, "location_x": {"Points": [{"interpolation": 2, "co": {"X": 1.0, "Y": 0.0}}]}, "time": {"Points": [{"interpolation": 2, "co": {"X": 1.0, "Y": 1.0}}]}, "id": "GKX48KEXIY", "crop_y": {"Points": [{"interpolation": 2, "co": {"X": 1.0, "Y": 0.0}}]}, "perspective_c4_y": {"Points": [{"interpolation": 2, "co": {"X": 1.0, "Y": -1.0}}]}, "image": "..\\..\\..\\..\\..\\Users\\theor\\.openshot_qt\\thumbnail\\GKX48KEXIY-1093.png", "perspective_c3_y": {"Points": [{"interpolation": 2, "co": {"X": 1.0, "Y": -1.0}}]}, "effects": [], "channel_mapping": {"Points": [{"interpolation": 2, "co": {"X": 1.0, "Y": -1.0}}]}, "display": 0, "waveform": false, "duration": 140.1600036621094, "crop_width": {"Points": [{"interpolation": 2, "co": {"X": 1.0, "Y": -1.0}}]}, "perspective_c2_x": {"Points": [{"interpolation": 2, "co": {"X": 1.0, "Y": -1.0}}]}, "has_audio": {"Points": [{"interpolation": 2, "co": {"X": 1.0, "Y": -1.0}}]}, "anchor": 0, "end": 140.1600036621094, "wave_color": {"alpha": {"Points": [{"interpolation": 0, "handle_right": {"X": 0.5, "Y": 0.0}, "handle_left": {"X": 0.5, "Y": 1.0}, "handle_type": 0, "co": {"X": 1.0, "Y": 255.0}}]}, "green": {"Points": [{"interpolation": 0, "handle_right": {"X": 0.5, "Y": 0.0}, "handle_left": {"X": 0.5, "Y": 1.0}, "handle_type": 0, "co": {"X": 1.0, "Y": 123.0}}]}, "red": {"Points": [{"interpolation": 0, "handle_right": {"X": 0.5, "Y": 0.0}, "handle_left": {"X": 0.5, "Y": 1.0}, "handle_type": 0, "co": {"X": 1.0, "Y": 0.0}}]}, "blue": {"Points": [{"interpolation": 0, "handle_right": {"X": 0.5, "Y": 0.0}, "handle_left": {"X": 0.5, "Y": 1.0}, "handle_type": 0, "co": {"X": 1.0, "Y": 255.0}}]}}, "title": "Enscape_2019-03-11-18-17-57.mp4", "shear_x": {"Points": [{"interpolation": 2, "co": {"X": 1.0, "Y": 0.0}}]}, "channel_filter": {"Points": [{"interpolation": 2, "co": {"X": 1.0, "Y": -1.0}}]}, "scale_y": {"Points": [{"interpolation": 2, "co": {"X": 1.0, "Y": 1.0}}]}, "shear_y": {"Points": [{"interpolation": 2, "co": {"X": 1.0, "Y": 0.0}}]}, "scale_x": {"Points": [{"interpolation": 2, "co": {"X": 1.0, "Y": 1.0}}]}, "crop_x": {"Points": [{"interpolation": 2, "co": {"X": 1.0, "Y": 0.0}}]}, "has_video": {"Points": [{"interpolation": 2, "co": {"X": 1.0, "Y": -1.0}}]}}], "duration": 300, "channels": 2, "sample_rate": 44100, "tick_pixels": 100, "fps": {"num": 24, "den": 1}, "history": {"undo": [{"old_values": [], "partial": false, "key": ["clips"], "type": "insert", "value": {"perspective_c3_y": {"Points": [{"interpolation": 2, "co": {"X": 1.0, "Y": -1.0}}]}, "alpha": {"Points": [{"interpolation": 2, "co": {"X": 1.0, "Y": 1.0}}]}, "scale_y": {"Points": [{"interpolation": 2, "co": {"X": 1.0, "Y": 1.0}}]}, "start": 0, "perspective_c4_x": {"Points": [{"interpolation": 2, "co": {"X": 1.0, "Y": -1.0}}]}, "effects": [], "channel_mapping": {"Points": [{"interpolation": 2, "co": {"X": 1.0, "Y": -1.0}}]}, "rotation": {"Points": [{"interpolation": 2, "co": {"X": 1.0, "Y": 0.0}}]}, "perspective_c2_x": {"Points": [{"interpolation": 2, "co": {"X": 1.0, "Y": -1.0}}]}, "reader": {"display_ratio": {"num": 4, "den": 3}, "audio_timebase": {"num": 1, "den": 1}, "height": 768, "path": "C:/Dropbox/GitHub/Organic_Grocery_Store/Transfer/20190311 - Animation/Enscape_2019-03-11-18-17-57.mp4", "video_stream_index": 0, "pixel_ratio": {"num": 1, "den": 1}, "duration": 140.1600036621094, "file_size": "73319803", "video_timebase": {"num": 1, "den": 25}, "video_bit_rate": 4184920, "interlaced_frame": false, "has_audio": false, "audio_stream_index": -1, "fps": {"num": 25, "den": 1}, "acodec": "", "pixel_format": 0, "top_field_first": true, "vcodec": "mpeg4", "type": "FFmpegReader", "sample_rate": 0, "has_single_image": false, "channel_layout": 4, "channels": 0, "video_length": "3504", "width": 1024, "audio_bit_rate": 0, "has_video": true}, "position": 0, "waveform": false, "display": 0, "time": {"Points": [{"interpolation": 1, "co": {"X": 1.0, "Y": 1.0}}, {"interpolation": 1, "co": {"X": 517.0, "Y": 1033.0}}]}, "duration": 70.0, "crop_height": {"Points": [{"interpolation": 2, "co": {"X": 1.0, "Y": -1.0}}]}, "perspective_c1_y": {"Points": [{"interpolation": 2, "co": {"X": 1.0, "Y": -1.0}}]}, "crop_width": {"Points": [{"interpolation": 2, "co": {"X": 1.0, "Y": -1.0}}]}, "layer": 0, "gravity": 4, "file_id": "OPGYZH1CE3", "has_audio": {"Points": [{"interpolation": 2, "co": {"X": 1.0, "Y": -1.0}}]}, "anchor": 0, "end": 21.541666666666668, "location_x": {"Points": [{"interpolation": 2, "co": {"X": 1.0, "Y": 0.0}}]}, "wave_color": {"alpha": {"Points": [{"interpolation": 0, "handle_right": {"X": 0.5, "Y": 0.0}, "handle_left": {"X": 0.5, "Y": 1.0}, "handle_type": 0, "co": {"X": 1.0, "Y": 255.0}}]}, "red": {"Points": [{"interpolation": 0, "handle_right": {"X": 0.5, "Y": 0.0}, "handle_left": {"X": 0.5, "Y": 1.0}, "handle_type": 0, "co": {"X": 1.0, "Y": 0.0}}]}, "green": {"Points": [{"interpolation": 0, "handle_right": {"X": 0.5, "Y": 0.0}, "handle_left": {"X": 0.5, "Y": 1.0}, "handle_type": 0, "co": {"X": 1.0, "Y": 123.0}}]}, "blue": {"Points": [{"interpolation": 0, "handle_right": {"X": 0.5, "Y": 0.0}, "handle_left": {"X": 0.5, "Y": 1.0}, "handle_type": 0, "co": {"X": 1.0, "Y": 255.0}}]}}, "title": "Enscape_2019-03-11-18-17-57.mp4", "perspective_c3_x": {"Points": [{"interpolation": 2, "co": {"X": 1.0, "Y": -1.0}}]}, "shear_x": {"Points": [{"interpolation": 2, "co": {"X": 1.0, "Y": 0.0}}]}, "perspective_c2_y": {"Points": [{"interpolation": 2, "co": {"X": 1.0, "Y": -1.0}}]}, "perspective_c1_x": {"Points": [{"interpolation": 2, "co": {"X": 1.0, "Y": -1.0}}]}, "scale_x": {"Points": [{"interpolation": 2, "co": {"X": 1.0, "Y": 1.0}}]}, "id": "GP7FPK11R1", "crop_y": {"Points": [{"interpolation": 2, "co": {"X": 1.0, "Y": 0.0}}]}, "perspective_c4_y": {"Points": [{"interpolation": 2, "co": {"X": 1.0, "Y": -1.0}}]}, "shear_y": {"Points": [{"interpolation": 2, "co": {"X": 1.0, "Y": 0.0}}]}, "channel_filter": {"Points": [{"interpolation": 2, "co": {"X": 1.0, "Y": -1.0}}]}, "crop_x": {"Points": [{"interpolation": 2, "co": {"X": 1.0, "Y": 0.0}}]}, "scale": 1, "volume": {"Points": [{"interpolation": 2, "co": {"X": 1.0, "Y": 1.0}}]}, "image": "C:\\Users\\theor\\.openshot_qt\\thumbnail\\OPGYZH1CE3.png", "location_y": {"Points": [{"interpolation": 2, "co": {"X": 1.0, "Y": 0.0}}]}, "has_video": {"Points": [{"interpolation": 2, "co": {"X": 1.0, "Y": -1.0}}]}}}, {"old_values": {"perspective_c3_y": {"Points": [{"interpolation": 2, "co": {"X": 1.0, "Y": -1.0}}]}, "alpha": {"Points": [{"interpolation": 2, "co": {"X": 1.0, "Y": 1.0}}]}, "scale_y": {"Points": [{"interpolation": 2, "co": {"X": 1.0, "Y": 1.0}}]}, "start": 0.0, "waveform": false, "effects": [], "channel_mapping": {"Points": [{"interpolation": 2, "co": {"X": 1.0, "Y": -1.0}}]}, "rotation": {"Points": [{"interpolation": 2, "co": {"X": 1.0, "Y": 0.0}}]}, "layer": 4, "reader": {"display_ratio": {"num": 4, "den": 3}, "audio_timebase": {"num": 1, "den": 1}, "channels": 0, "height": 768, "path": "C:/Dropbox/GitHub/Organic_Grocery_Store/Transfer/20190311 - Animation/Enscape_2019-03-11-18-17-57.mp4", "video_stream_index": 0, "pixel_ratio": {"num": 1, "den": 1}, "duration": 140.1600036621094, "file_size": "73319803", "video_bit_rate": 4184920, "interlaced_frame": false, "has_audio": false, "audio_stream_index": -1, "fps": {"num": 25, "den": 1}, "acodec": "", "pixel_format": 0, "top_field_first": true, "vcodec": "mpeg4", "type": "FFmpegReader", "sample_rate": 0, "has_single_image": false, "channel_layout": 4, "video_timebase": {"num": 1, "den": 25}, "video_length": "3504", "width": 1024, "audio_bit_rate": 0, "has_video": true}, "perspective_c1_y": {"Points": [{"interpolation": 2, "co": {"X": 1.0, "Y": -1.0}}]}, "display": 0, "perspective_c1_x": {"Points": [{"interpolation": 2, "co": {"X": 1.0, "Y": -1.0}}]}, "duration": 140.1600036621094, "crop_height": {"Points": [{"interpolation": 2, "co": {"X": 1.0, "Y": -1.0}}]}, "position": 0.0, "crop_width": {"Points": [{"interpolation": 2, "co": {"X": 1.0, "Y": -1.0}}]}, "perspective_c2_x": {"Points": [{"interpolation": 2, "co": {"X": 1.0, "Y": -1.0}}]}, "gravity": 4, "perspective_c4_x": {"Points": [{"interpolation": 2, "co": {"X": 1.0, "Y": -1.0}}]}, "has_audio": {"Points": [{"interpolation": 2, "co": {"X": 1.0, "Y": -1.0}}]}, "anchor": 0, "file_id": "OPGYZH1CE3", "end": 140.1600036621094, "location_x": {"Points": [{"interpolation": 2, "co": {"X": 1.0, "Y": 0.0}}]}, "wave_color": {"alpha": {"Points": [{"interpolation": 0, "handle_right": {"X": 0.5, "Y": 0.0}, "handle_left": {"X": 0.5, "Y": 1.0}, "handle_type": 0, "co": {"X": 1.0, "Y": 255.0}}]}, "green": {"Points": [{"interpolation": 0, "handle_right": {"X": 0.5, "Y": 0.0}, "handle_left": {"X": 0.5, "Y": 1.0}, "handle_type": 0, "co": {"X": 1.0, "Y": 123.0}}]}, "red": {"Points": [{"interpolation": 0, "handle_right": {"X": 0.5, "Y": 0.0}, "handle_left": {"X": 0.5, "Y": 1.0}, "handle_type": 0, "co": {"X": 1.0, "Y": 0.0}}]}, "blue": {"Points": [{"interpolation": 0, "handle_right": {"X": 0.5, "Y": 0.0}, "handle_left": {"X": 0.5, "Y": 1.0}, "handle_type": 0, "co": {"X": 1.0, "Y": 255.0}}]}}, "title": "Enscape_2019-03-11-18-17-57.mp4", "perspective_c3_x": {"Points": [{"interpolation": 2, "co": {"X": 1.0, "Y": -1.0}}]}, "shear_x": {"Points": [{"interpolation": 2, "co": {"X": 1.0, "Y": 0.0}}]}, "perspective_c2_y": {"Points": [{"interpolation": 2, "co": {"X": 1.0, "Y": -1.0}}]}, "time": {"Points": [{"interpolation": 2, "co": {"X": 1.0, "Y": 1.0}}]}, "scale_x": {"Points": [{"interpolation": 2, "co": {"X": 1.0, "Y": 1.0}}]}, "volume": {"Points": [{"interpolation": 2, "co": {"X": 1.0, "Y": 1.0}}]}, "id": "GP7FPK11R1", "crop_y": {"Points": [{"interpolation": 2, "co": {"X": 1.0, "Y": 0.0}}]}, "perspective_c4_y": {"Points": [{"interpolation": 2, "co": {"X": 1.0, "Y": -1.0}}]}, "channel_filter": {"Points": [{"interpolation": 2, "co": {"X": 1.0, "Y": -1.0}}]}, "crop_x": {"Points": [{"interpolation": 2, "co": {"X": 1.0, "Y": 0.0}}]}, "scale": 1, "shear_y": {"Points": [{"interpolation": 2, "co": {"X": 1.0, "Y": 0.0}}]}, "image": "C:\\Users\\theor\\.openshot_qt\\thumbnail\\OPGYZH1CE3.png", "location_y": {"Points": [{"interpolation": 2, "co": {"X": 1.0, "Y": 0.0}}]}, "has_video": {"Points": [{"interpolation": 2, "co": {"X": 1.0, "Y": -1.0}}]}}, "partial": false, "key": ["clips", {"id": "GP7FPK11R1"}], "type": "update", "value": {"id": "GP7FPK11R1", "end": 140.1600036621094, "start": 0, "layer": 0, "image": "C:\\Users\\theor\\.openshot_qt\\thumbnail\\OPGYZH1CE3.png", "position": 4.16}}, {"old_values": {"perspective_c3_y": {"Points": [{"interpolation": 2, "co": {"X": 1.0, "Y": -1.0}}]}, "alpha": {"Points": [{"interpolation": 2, "co": {"X": 1.0, "Y": 1.0}}]}, "shear_x": {"Points": [{"interpolation": 2, "co": {"X": 1.0, "Y": 0.0}}]}, "start": 0, "perspective_c4_x": {"Points": [{"interpolation": 2, "co": {"X": 1.0, "Y": -1.0}}]}, "effects": [], "channel_mapping": {"Points": [{"interpolation": 2, "co": {"X": 1.0, "Y": -1.0}}]}, "rotation": {"Points": [{"interpolation": 2, "co": {"X": 1.0, "Y": 0.0}}]}, "perspective_c1_x": {"Points": [{"interpolation": 2, "co": {"X": 1.0, "Y": -1.0}}]}, "layer": 0, "reader": {"display_ratio": {"num": 4, "den": 3}, "audio_timebase": {"num": 1, "den": 1}, "channels": 0, "height": 768, "path": "C:/Dropbox/GitHub/Organic_Grocery_Store/Transfer/20190311 - Animation/Enscape_2019-03-11-18-17-57.mp4", "video_stream_index": 0, "pixel_ratio": {"num": 1, "den": 1}, "duration": 140.1600036621094, "file_size": "73319803", "video_bit_rate": 4184920, "interlaced_frame": false, "has_audio": false, "audio_stream_index": -1, "fps": {"num": 25, "den": 1}, "acodec": "", "pixel_format": 0, "top_field_first": true, "vcodec": "mpeg4", "type": "FFmpegReader", "sample_rate": 0, "has_single_image": false, "channel_layout": 4, "video_timebase": {"num": 1, "den": 25}, "video_length": "3504", "width": 1024, "audio_bit_rate": 0, "has_video": true}, "position": 4.16, "display": 0, "waveform": false, "duration": 140.1600036621094, "crop_height": {"Points": [{"interpolation": 2, "co": {"X": 1.0, "Y": -1.0}}]}, "perspective_c1_y": {"Points": [{"interpolation": 2, "co": {"X": 1.0, "Y": -1.0}}]}, "crop_width": {"Points": [{"interpolation": 2, "co": {"X": 1.0, "Y": -1.0}}]}, "perspective_c2_x": {"Points": [{"interpolation": 2, "co": {"X": 1.0, "Y": -1.0}}]}, "gravity": 4, "file_id": "OPGYZH1CE3", "has_audio": {"Points": [{"interpolation": 2, "co": {"X": 1.0, "Y": -1.0}}]}, "anchor": 0, "end": 140.1600036621094, "location_x": {"Points": [{"interpolation": 2, "co": {"X": 1.0, "Y": 0.0}}]}, "wave_color": {"alpha": {"Points": [{"interpolation": 0, "handle_right": {"X": 0.5, "Y": 0.0}, "handle_left": {"X": 0.5, "Y": 1.0}, "handle_type": 0, "co": {"X": 1.0, "Y": 255.0}}]}, "green": {"Points": [{"interpolation": 0, "handle_right": {"X": 0.5, "Y": 0.0}, "handle_left": {"X": 0.5, "Y": 1.0}, "handle_type": 0, "co": {"X": 1.0, "Y": 123.0}}]}, "red": {"Points": [{"interpolation": 0, "handle_right": {"X": 0.5, "Y": 0.0}, "handle_left": {"X": 0.5, "Y": 1.0}, "handle_type": 0, "co": {"X": 1.0, "Y": 0.0}}]}, "blue": {"Points": [{"interpolation": 0, "handle_right": {"X": 0.5, "Y": 0.0}, "handle_left": {"X": 0.5, "Y": 1.0}, "handle_type": 0, "co": {"X": 1.0, "Y": 255.0}}]}}, "title": "Enscape_2019-03-11-18-17-57.mp4", "perspective_c3_x": {"Points": [{"interpolation": 2, "co": {"X": 1.0, "Y": -1.0}}]}, "scale_y": {"Points": [{"interpolation": 2, "co": {"X": 1.0, "Y": 1.0}}]}, "perspective_c2_y": {"Points": [{"interpolation": 2, "co": {"X": 1.0, "Y": -1.0}}]}, "time": {"Points": [{"interpolation": 2, "co": {"X": 1.0, "Y": 1.0}}]}, "scale_x": {"Points": [{"interpolation": 2, "co": {"X": 1.0, "Y": 1.0}}]}, "volume": {"Points": [{"interpolation": 2, "co": {"X": 1.0, "Y": 1.0}}]}, "id": "GP7FPK11R1", "crop_y": {"Points": [{"interpolation": 2, "co": {"X": 1.0, "Y": 0.0}}]}, "perspective_c4_y": {"Points": [{"interpolation": 2, "co": {"X": 1.0, "Y": -1.0}}]}, "channel_filter": {"Points": [{"interpolation": 2, "co": {"X": 1.0, "Y": -1.0}}]}, "crop_x": {"Points": [{"interpolation": 2, "co": {"X": 1.0, "Y": 0.0}}]}, "scale": 1, "shear_y": {"Points": [{"interpolation": 2, "co": {"X": 1.0, "Y": 0.0}}]}, "image": "C:\\Users\\theor\\.openshot_qt\\thumbnail\\OPGYZH1CE3.png", "location_y": {"Points": [{"interpolation": 2, "co": {"X": 1.0, "Y": 0.0}}]}, "has_video": {"Points": [{"interpolation": 2, "co": {"X": 1.0, "Y": -1.0}}]}}, "partial": false, "key": ["clips", {"id": "GP7FPK11R1"}], "type": "update", "value": {"id": "GP7FPK11R1", "end": 140.1600036621094, "start": 0, "layer": 0, "image": "C:\\Users\\theor\\.openshot_qt\\thumbnail\\OPGYZH1CE3.png", "position": 0}}, {"old_values": [{"audio_bit_rate": 0, "display_ratio": {"num": 4, "den": 3}, "audio_timebase": {"num": 1, "den": 1}, "height": 768, "path": "C:/Dropbox/GitHub/Organic_Grocery_Store/Transfer/20190311 - Animation/Enscape_2019-03-11-18-17-57.mp4", "video_stream_index": 0, "pixel_ratio": {"num": 1, "den": 1}, "duration": 140.1600036621094, "channels": 0, "media_type": "video", "video_bit_rate": 4184920, "audio_stream_index": -1, "has_audio": false, "fps": {"num": 25, "den": 1}, "acodec": "", "pixel_format": 0, "top_field_first": true, "vcodec": "mpeg4", "type": "FFmpegReader", "sample_rate": 0, "id": "OPGYZH1CE3", "file_size": "73319803", "has_single_image": false, "channel_layout": 4, "video_timebase": {"num": 1, "den": 25}, "video_length": "3504", "width": 1024, "interlaced_frame": false, "has_video": true}], "partial": false, "key": ["files"], "type": "insert", "value": {"display_ratio": {"num": 1, "den": 1}, "audio_timebase": {"num": 1, "den": 14112000}, "height": 480, "path": "C:/Users/theor/Music/Replay Music Recordings/Replay Music 2019-03-12/Not Recognized-Track2.mp3", "video_stream_index": -1, "pixel_ratio": {"num": 1, "den": 1}, "duration": 118.0559997558594, "channels": 2, "sample_rate": 48000, "video_timebase": {"num": 1, "den": 24}, "video_bit_rate": 0, "audio_stream_index": 0, "has_audio": true, "fps": {"num": 24, "den": 1}, "acodec": "mp3", "pixel_format": -1, "top_field_first": true, "vcodec": "", "type": "FFmpegReader", "media_type": "audio", "id": "5TEJ096RKR", "file_size": "1890566", "has_single_image": false, "channel_layout": 3, "interlaced_frame": false, "video_length": "2833", "width": 720, "audio_bit_rate": 128000, "has_video": false}}, {"old_values": [{"perspective_c3_y": {"Points": [{"interpolation": 2, "co": {"X": 1.0, "Y": -1.0}}]}, "alpha": {"Points": [{"interpolation": 2, "co": {"X": 1.0, "Y": 1.0}}]}, "shear_x": {"Points": [{"interpolation": 2, "co": {"X": 1.0, "Y": 0.0}}]}, "start": 0, "perspective_c4_x": {"Points": [{"interpolation": 2, "co": {"X": 1.0, "Y": -1.0}}]}, "effects": [], "channel_mapping": {"Points": [{"interpolation": 2, "co": {"X": 1.0, "Y": -1.0}}]}, "rotation": {"Points": [{"interpolation": 2, "co": {"X": 1.0, "Y": 0.0}}]}, "perspective_c1_x": {"Points": [{"interpolation": 2, "co": {"X": 1.0, "Y": -1.0}}]}, "layer": 0, "reader": {"display_ratio": {"num": 4, "den": 3}, "audio_timebase": {"num": 1, "den": 1}, "channels": 0, "height": 768, "path": "C:/Dropbox/GitHub/Organic_Grocery_Store/Transfer/20190311 - Animation/Enscape_2019-03-11-18-17-57.mp4", "video_stream_index": 0, "pixel_ratio": {"num": 1, "den": 1}, "duration": 140.1600036621094, "file_size": "73319803", "video_bit_rate": 4184920, "interlaced_frame": false, "has_audio": false, "audio_stream_index": -1, "fps": {"num": 25, "den": 1}, "acodec": "", "pixel_format": 0, "top_field_first": true, "vcodec": "mpeg4", "type": "FFmpegReader", "sample_rate": 0, "has_single_image": false, "channel_layout": 4, "video_timebase": {"num": 1, "den": 25}, "video_length": "3504", "width": 1024, "audio_bit_rate": 0, "has_video": true}, "position": 0, "display": 0, "waveform": false, "duration": 140.1600036621094, "crop_height": {"Points": [{"interpolation": 2, "co": {"X": 1.0, "Y": -1.0}}]}, "perspective_c1_y": {"Points": [{"interpolation": 2, "co": {"X": 1.0, "Y": -1.0}}]}, "crop_width": {"Points": [{"interpolation": 2, "co": {"X": 1.0, "Y": -1.0}}]}, "perspective_c2_x": {"Points": [{"interpolation": 2, "co": {"X": 1.0, "Y": -1.0}}]}, "gravity": 4, "file_id": "OPGYZH1CE3", "has_audio": {"Points": [{"interpolation": 2, "co": {"X": 1.0, "Y": -1.0}}]}, "anchor": 0, "end": 140.1600036621094, "location_x": {"Points": [{"interpolation": 2, "co": {"X": 1.0, "Y": 0.0}}]}, "wave_color": {"alpha": {"Points": [{"interpolation": 0, "handle_right": {"X": 0.5, "Y": 0.0}, "handle_left": {"X": 0.5, "Y": 1.0}, "handle_type": 0, "co": {"X": 1.0, "Y": 255.0}}]}, "green": {"Points": [{"interpolation": 0, "handle_right": {"X": 0.5, "Y": 0.0}, "handle_left": {"X": 0.5, "Y": 1.0}, "handle_type": 0, "co": {"X": 1.0, "Y": 123.0}}]}, "red": {"Points": [{"interpolation": 0, "handle_right": {"X": 0.5, "Y": 0.0}, "handle_left": {"X": 0.5, "Y": 1.0}, "handle_type": 0, "co": {"X": 1.0, "Y": 0.0}}]}, "blue": {"Points": [{"interpolation": 0, "handle_right": {"X": 0.5, "Y": 0.0}, "handle_left": {"X": 0.5, "Y": 1.0}, "handle_type": 0, "co": {"X": 1.0, "Y": 255.0}}]}}, "title": "Enscape_2019-03-11-18-17-57.mp4", "perspective_c3_x": {"Points": [{"interpolation": 2, "co": {"X": 1.0, "Y": -1.0}}]}, "scale_y": {"Points": [{"interpolation": 2, "co": {"X": 1.0, "Y": 1.0}}]}, "perspective_c2_y": {"Points": [{"interpolation": 2, "co": {"X": 1.0, "Y": -1.0}}]}, "time": {"Points": [{"interpolation": 2, "co": {"X": 1.0, "Y": 1.0}}]}, "scale_x": {"Points": [{"interpolation": 2, "co": {"X": 1.0, "Y": 1.0}}]}, "volume": {"Points": [{"interpolation": 2, "co": {"X": 1.0, "Y": 1.0}}]}, "id": "GP7FPK11R1", "crop_y": {"Points": [{"interpolation": 2, "co": {"X": 1.0, "Y": 0.0}}]}, "perspective_c4_y": {"Points": [{"interpolation": 2, "co": {"X": 1.0, "Y": -1.0}}]}, "channel_filter": {"Points": [{"interpolation": 2, "co": {"X": 1.0, "Y": -1.0}}]}, "crop_x": {"Points": [{"interpolation": 2, "co": {"X": 1.0, "Y": 0.0}}]}, "scale": 1, "shear_y": {"Points": [{"interpolation": 2, "co": {"X": 1.0, "Y": 0.0}}]}, "image": "C:\\Users\\theor\\.openshot_qt\\thumbnail\\OPGYZH1CE3.png", "location_y": {"Points": [{"interpolation": 2, "co": {"X": 1.0, "Y": 0.0}}]}, "has_video": {"Points": [{"interpolation": 2, "co": {"X": 1.0, "Y": -1.0}}]}}], "partial": false, "key": ["clips"], "type": "insert", "value": {"perspective_c3_y": {"Points": [{"interpolation": 2, "co": {"X": 1.0, "Y": -1.0}}]}, "alpha": {"Points": [{"interpolation": 2, "co": {"X": 1.0, "Y": 1.0}}]}, "scale_y": {"Points": [{"interpolation": 2, "co": {"X": 1.0, "Y": 1.0}}]}, "start": 0, "perspective_c4_x": {"Points": [{"interpolation": 2, "co": {"X": 1.0, "Y": -1.0}}]}, "effects": [], "channel_mapping": {"Points": [{"interpolation": 2, "co": {"X": 1.0, "Y": -1.0}}]}, "rotation": {"Points": [{"interpolation": 2, "co": {"X": 1.0, "Y": 0.0}}]}, "perspective_c2_x": {"Points": [{"interpolation": 2, "co": {"X": 1.0, "Y": -1.0}}]}, "reader": {"display_ratio": {"num": 1, "den": 1}, "audio_timebase": {"num": 1, "den": 14112000}, "height": 480, "path": "C:/Users/theor/Music/Replay Music Recordings/Replay Music 2019-03-12/Not Recognized-Track2.mp3", "video_stream_index": -1, "pixel_ratio": {"num": 1, "den": 1}, "duration": 118.0559997558594, "file_size": "1890566", "video_timebase": {"num": 1, "den": 24}, "video_bit_rate": 0, "interlaced_frame": false, "has_audio": true, "audio_stream_index": 0, "fps": {"num": 24, "den": 1}, "acodec": "mp3", "pixel_format": -1, "top_field_first": true, "vcodec": "", "type": "FFmpegReader", "sample_rate": 48000, "has_single_image": false, "channel_layout": 3, "channels": 2, "video_length": "2833", "width": 720, "audio_bit_rate": 128000, "has_video": false}, "position": 0, "waveform": false, "display": 0, "time": {"Points": [{"interpolation": 2, "co": {"X": 1.0, "Y": 1.0}}]}, "duration": 118.0559997558594, "crop_height": {"Points": [{"interpolation": 2, "co": {"X": 1.0, "Y": -1.0}}]}, "perspective_c1_y": {"Points": [{"interpolation": 2, "co": {"X": 1.0, "Y": -1.0}}]}, "crop_width": {"Points": [{"interpolation": 2, "co": {"X": 1.0, "Y": -1.0}}]}, "layer": 1, "gravity": 4, "file_id": "5TEJ096RKR", "has_audio": {"Points": [{"interpolation": 2, "co": {"X": 1.0, "Y": -1.0}}]}, "anchor": 0, "end": 118.0559997558594, "location_x": {"Points": [{"interpolation": 2, "co": {"X": 1.0, "Y": 0.0}}]}, "wave_color": {"alpha": {"Points": [{"interpolation": 0, "handle_right": {"X": 0.5, "Y": 0.0}, "handle_left": {"X": 0.5, "Y": 1.0}, "handle_type": 0, "co": {"X": 1.0, "Y": 255.0}}]}, "red": {"Points": [{"interpolation": 0, "handle_right": {"X": 0.5, "Y": 0.0}, "handle_left": {"X": 0.5, "Y": 1.0}, "handle_type": 0, "co": {"X": 1.0, "Y": 0.0}}]}, "green": {"Points": [{"interpolation": 0, "handle_right": {"X": 0.5, "Y": 0.0}, "handle_left": {"X": 0.5, "Y": 1.0}, "handle_type": 0, "co": {"X": 1.0, "Y": 123.0}}]}, "blue": {"Points": [{"interpolation": 0, "handle_right": {"X": 0.5, "Y": 0.0}, "handle_left": {"X": 0.5, "Y": 1.0}, "handle_type": 0, "co": {"X": 1.0, "Y": 255.0}}]}}, "title": "Not Recognized-Track2.mp3", "perspective_c3_x": {"Points": [{"interpolation": 2, "co": {"X": 1.0, "Y": -1.0}}]}, "shear_x": {"Points": [{"interpolation": 2, "co": {"X": 1.0, "Y": 0.0}}]}, "perspective_c2_y": {"Points": [{"interpolation": 2, "co": {"X": 1.0, "Y": -1.0}}]}, "perspective_c1_x": {"Points": [{"interpolation": 2, "co": {"X": 1.0, "Y": -1.0}}]}, "scale_x": {"Points": [{"interpolation": 2, "co": {"X": 1.0, "Y": 1.0}}]}, "id": "7P4R5BJNZZ", "crop_y": {"Points": [{"interpolation": 2, "co": {"X": 1.0, "Y": 0.0}}]}, "perspective_c4_y": {"Points": [{"interpolation": 2, "co": {"X": 1.0, "Y": -1.0}}]}, "shear_y": {"Points": [{"interpolation": 2, "co": {"X": 1.0, "Y": 0.0}}]}, "channel_filter": {"Points": [{"interpolation": 2, "co": {"X": 1.0, "Y": -1.0}}]}, "crop_x": {"Points": [{"interpolation": 2, "co": {"X": 1.0, "Y": 0.0}}]}, "scale": 1, "volume": {"Points": [{"interpolation": 2, "co": {"X": 1.0, "Y": 1.0}}]}, "image": "C:\\Program Files\\OpenShot Video Editor\\images\\AudioThumbnail.png", "location_y": {"Points": [{"interpolation": 2, "co": {"X": 1.0, "Y": 0.0}}]}, "has_video": {"Points": [{"interpolation": 2, "co": {"X": 1.0, "Y": -1.0}}]}}}, {"old_values": {"perspective_c3_y": {"Points": [{"interpolation": 2, "co": {"X": 1.0, "Y": -1.0}}]}, "alpha": {"Points": [{"interpolation": 2, "co": {"X": 1.0, "Y": 1.0}}]}, "scale_y": {"Points": [{"interpolation": 2, "co": {"X": 1.0, "Y": 1.0}}]}, "start": 0.0, "waveform": false, "effects": [], "channel_mapping": {"Points": [{"interpolation": 2, "co": {"X": 1.0, "Y": -1.0}}]}, "rotation": {"Points": [{"interpolation": 2, "co": {"X": 1.0, "Y": 0.0}}]}, "layer": 4, "reader": {"display_ratio": {"num": 1, "den": 1}, "audio_timebase": {"num": 1, "den": 14112000}, "channels": 2, "height": 480, "path": "C:/Users/theor/Music/Replay Music Recordings/Replay Music 2019-03-12/Not Recognized-Track2.mp3", "video_stream_index": -1, "pixel_ratio": {"num": 1, "den": 1}, "duration": 118.0559997558594, "file_size": "1890566", "video_bit_rate": 0, "interlaced_frame": false, "has_audio": true, "audio_stream_index": 0, "fps": {"num": 24, "den": 1}, "acodec": "mp3", "pixel_format": -1, "top_field_first": true, "vcodec": "", "type": "FFmpegReader", "sample_rate": 48000, "has_single_image": false, "channel_layout": 3, "video_timebase": {"num": 1, "den": 24}, "video_length": "2833", "width": 720, "audio_bit_rate": 128000, "has_video": false}, "perspective_c1_y": {"Points": [{"interpolation": 2, "co": {"X": 1.0, "Y": -1.0}}]}, "display": 0, "perspective_c1_x": {"Points": [{"interpolation": 2, "co": {"X": 1.0, "Y": -1.0}}]}, "duration": 118.0559997558594, "crop_height": {"Points": [{"interpolation": 2, "co": {"X": 1.0, "Y": -1.0}}]}, "position": 4.16, "crop_width": {"Points": [{"interpolation": 2, "co": {"X": 1.0, "Y": -1.0}}]}, "perspective_c2_x": {"Points": [{"interpolation": 2, "co": {"X": 1.0, "Y": -1.0}}]}, "gravity": 4, "perspective_c4_x": {"Points": [{"interpolation": 2, "co": {"X": 1.0, "Y": -1.0}}]}, "has_audio": {"Points": [{"interpolation": 2, "co": {"X": 1.0, "Y": -1.0}}]}, "anchor": 0, "file_id": "5TEJ096RKR", "end": 118.0559997558594, "location_x": {"Points": [{"interpolation": 2, "co": {"X": 1.0, "Y": 0.0}}]}, "wave_color": {"alpha": {"Points": [{"interpolation": 0, "handle_right": {"X": 0.5, "Y": 0.0}, "handle_left": {"X": 0.5, "Y": 1.0}, "handle_type": 0, "co": {"X": 1.0, "Y": 255.0}}]}, "green": {"Points": [{"interpolation": 0, "handle_right": {"X": 0.5, "Y": 0.0}, "handle_left": {"X": 0.5, "Y": 1.0}, "handle_type": 0, "co": {"X": 1.0, "Y": 123.0}}]}, "red": {"Points": [{"interpolation": 0, "handle_right": {"X": 0.5, "Y": 0.0}, "handle_left": {"X": 0.5, "Y": 1.0}, "handle_type": 0, "co": {"X": 1.0, "Y": 0.0}}]}, "blue": {"Points": [{"interpolation": 0, "handle_right": {"X": 0.5, "Y": 0.0}, "handle_left": {"X": 0.5, "Y": 1.0}, "handle_type": 0, "co": {"X": 1.0, "Y": 255.0}}]}}, "title": "Not Recognized-Track2.mp3", "perspective_c3_x": {"Points": [{"interpolation": 2, "co": {"X": 1.0, "Y": -1.0}}]}, "shear_x": {"Points": [{"interpolation": 2, "co": {"X": 1.0, "Y": 0.0}}]}, "perspective_c2_y": {"Points": [{"interpolation": 2, "co": {"X": 1.0, "Y": -1.0}}]}, "time": {"Points": [{"interpolation": 2, "co": {"X": 1.0, "Y": 1.0}}]}, "scale_x": {"Points": [{"interpolation": 2, "co": {"X": 1.0, "Y": 1.0}}]}, "volume": {"Points": [{"interpolation": 2, "co": {"X": 1.0, "Y": 1.0}}]}, "id": "7P4R5BJNZZ", "crop_y": {"Points": [{"interpolation": 2, "co": {"X": 1.0, "Y": 0.0}}]}, "perspective_c4_y": {"Points": [{"interpolation": 2, "co": {"X": 1.0, "Y": -1.0}}]}, "channel_filter": {"Points": [{"interpolation": 2, "co": {"X": 1.0, "Y": -1.0}}]}, "crop_x": {"Points": [{"interpolation": 2, "co": {"X": 1.0, "Y": 0.0}}]}, "scale": 1, "shear_y": {"Points": [{"interpolation": 2, "co": {"X": 1.0, "Y": 0.0}}]}, "image": "C:\\Program Files\\OpenShot Video Editor\\images\\AudioThumbnail.png", "location_y": {"Points": [{"interpolation": 2, "co": {"X": 1.0, "Y": 0.0}}]}, "has_video": {"Points": [{"interpolation": 2, "co": {"X": 1.0, "Y": -1.0}}]}}, "partial": false, "key": ["clips", {"id": "7P4R5BJNZZ"}], "type": "update", "value": {"id": "7P4R5BJNZZ", "end": 118.0559997558594, "start": 0, "layer": 1, "image": "C:\\Program Files\\OpenShot Video Editor\\images\\AudioThumbnail.png", "position": 17.44}}, {"old_values": {"perspective_c3_y": {"Points": [{"interpolation": 2, "co": {"X": 1.0, "Y": -1.0}}]}, "alpha": {"Points": [{"interpolation": 2, "co": {"X": 1.0, "Y": 1.0}}]}, "shear_x": {"Points": [{"interpolation": 2, "co": {"X": 1.0, "Y": 0.0}}]}, "start": 0, "perspective_c4_x": {"Points": [{"interpolation": 2, "co": {"X": 1.0, "Y": -1.0}}]}, "effects": [], "channel_mapping": {"Points": [{"interpolation": 2, "co": {"X": 1.0, "Y": -1.0}}]}, "rotation": {"Points": [{"interpolation": 2, "co": {"X": 1.0, "Y": 0.0}}]}, "perspective_c1_x": {"Points": [{"interpolation": 2, "co": {"X": 1.0, "Y": -1.0}}]}, "layer": 1, "reader": {"display_ratio": {"num": 1, "den": 1}, "audio_timebase": {"num": 1, "den": 14112000}, "channels": 2, "height": 480, "path": "C:/Users/theor/Music/Replay Music Recordings/Replay Music 2019-03-12/Not Recognized-Track2.mp3", "video_stream_index": -1, "pixel_ratio": {"num": 1, "den": 1}, "duration": 118.0559997558594, "file_size": "1890566", "video_bit_rate": 0, "interlaced_frame": false, "has_audio": true, "audio_stream_index": 0, "fps": {"num": 24, "den": 1}, "acodec": "mp3", "pixel_format": -1, "top_field_first": true, "vcodec": "", "type": "FFmpegReader", "sample_rate": 48000, "has_single_image": false, "channel_layout": 3, "video_timebase": {"num": 1, "den": 24}, "video_length": "2833", "width": 720, "audio_bit_rate": 128000, "has_video": false}, "position": 17.44, "display": 0, "waveform": false, "duration": 118.0559997558594, "crop_height": {"Points": [{"interpolation": 2, "co": {"X": 1.0, "Y": -1.0}}]}, "perspective_c1_y": {"Points": [{"interpolation": 2, "co": {"X": 1.0, "Y": -1.0}}]}, "crop_width": {"Points": [{"interpolation": 2, "co": {"X": 1.0, "Y": -1.0}}]}, "perspective_c2_x": {"Points": [{"interpolation": 2, "co": {"X": 1.0, "Y": -1.0}}]}, "gravity": 4, "file_id": "5TEJ096RKR", "has_audio": {"Points": [{"interpolation": 2, "co": {"X": 1.0, "Y": -1.0}}]}, "anchor": 0, "end": 118.0559997558594, "location_x": {"Points": [{"interpolation": 2, "co": {"X": 1.0, "Y": 0.0}}]}, "wave_color": {"alpha": {"Points": [{"interpolation": 0, "handle_right": {"X": 0.5, "Y": 0.0}, "handle_left": {"X": 0.5, "Y": 1.0}, "handle_type": 0, "co": {"X": 1.0, "Y": 255.0}}]}, "green": {"Points": [{"interpolation": 0, "handle_right": {"X": 0.5, "Y": 0.0}, "handle_left": {"X": 0.5, "Y": 1.0}, "handle_type": 0, "co": {"X": 1.0, "Y": 123.0}}]}, "red": {"Points": [{"interpolation": 0, "handle_right": {"X": 0.5, "Y": 0.0}, "handle_left": {"X": 0.5, "Y": 1.0}, "handle_type": 0, "co": {"X": 1.0, "Y": 0.0}}]}, "blue": {"Points": [{"interpolation": 0, "handle_right": {"X": 0.5, "Y": 0.0}, "handle_left": {"X": 0.5, "Y": 1.0}, "handle_type": 0, "co": {"X": 1.0, "Y": 255.0}}]}}, "title": "Not Recognized-Track2.mp3", "perspective_c3_x": {"Points": [{"interpolation": 2, "co": {"X": 1.0, "Y": -1.0}}]}, "scale_y": {"Points": [{"interpolation": 2, "co": {"X": 1.0, "Y": 1.0}}]}, "perspective_c2_y": {"Points": [{"interpolation": 2, "co": {"X": 1.0, "Y": -1.0}}]}, "time": {"Points": [{"interpolation": 2, "co": {"X": 1.0, "Y": 1.0}}]}, "scale_x": {"Points": [{"interpolation": 2, "co": {"X": 1.0, "Y": 1.0}}]}, "volume": {"Points": [{"interpolation": 2, "co": {"X": 1.0, "Y": 1.0}}]}, "id": "7P4R5BJNZZ", "crop_y": {"Points": [{"interpolation": 2, "co": {"X": 1.0, "Y": 0.0}}]}, "perspective_c4_y": {"Points": [{"interpolation": 2, "co": {"X": 1.0, "Y": -1.0}}]}, "channel_filter": {"Points": [{"interpolation": 2, "co": {"X": 1.0, "Y": -1.0}}]}, "crop_x": {"Points": [{"interpolation": 2, "co": {"X": 1.0, "Y": 0.0}}]}, "scale": 1, "shear_y": {"Points": [{"interpolation": 2, "co": {"X": 1.0, "Y": 0.0}}]}, "image": "C:\\Program Files\\OpenShot Video Editor\\images\\AudioThumbnail.png", "location_y": {"Points": [{"interpolation": 2, "co": {"X": 1.0, "Y": 0.0}}]}, "has_video": {"Points": [{"interpolation": 2, "co": {"X": 1.0, "Y": -1.0}}]}}, "partial": false, "key": ["clips", {"id": "7P4R5BJNZZ"}], "type": "update", "value": {"id": "7P4R5BJNZZ", "end": 118.0559997558594, "start": 0, "layer": 1, "image": "C:\\Program Files\\OpenShot Video Editor\\images\\AudioThumbnail.png", "position": 0}}, {"old_values": {"perspective_c3_y": {"Points": [{"interpolation": 2, "co": {"X": 1.0, "Y": -1.0}}]}, "alpha": {"Points": [{"interpolation": 2, "co": {"X": 1.0, "Y": 1.0}}]}, "shear_x": {"Points": [{"interpolation": 2, "co": {"X": 1.0, "Y": 0.0}}]}, "start": 0, "perspective_c4_x": {"Points": [{"interpolation": 2, "co": {"X": 1.0, "Y": -1.0}}]}, "effects": [], "channel_mapping": {"Points": [{"interpolation": 2, "co": {"X": 1.0, "Y": -1.0}}]}, "rotation": {"Points": [{"interpolation": 2, "co": {"X": 1.0, "Y": 0.0}}]}, "perspective_c1_x": {"Points": [{"interpolation": 2, "co": {"X": 1.0, "Y": -1.0}}]}, "layer": 0, "reader": {"display_ratio": {"num": 4, "den": 3}, "audio_timebase": {"num": 1, "den": 1}, "channels": 0, "height": 768, "path": "C:/Dropbox/GitHub/Organic_Grocery_Store/Transfer/20190311 - Animation/Enscape_2019-03-11-18-17-57.mp4", "video_stream_index": 0, "pixel_ratio": {"num": 1, "den": 1}, "duration": 140.1600036621094, "file_size": "73319803", "video_bit_rate": 4184920, "interlaced_frame": false, "has_audio": false, "audio_stream_index": -1, "fps": {"num": 25, "den": 1}, "acodec": "", "pixel_format": 0, "top_field_first": true, "vcodec": "mpeg4", "type": "FFmpegReader", "sample_rate": 0, "has_single_image": false, "channel_layout": 4, "video_timebase": {"num": 1, "den": 25}, "video_length": "3504", "width": 1024, "audio_bit_rate": 0, "has_video": true}, "position": 0, "display": 0, "waveform": false, "duration": 140.1600036621094, "crop_height": {"Points": [{"interpolation": 2, "co": {"X": 1.0, "Y": -1.0}}]}, "perspective_c1_y": {"Points": [{"interpolation": 2, "co": {"X": 1.0, "Y": -1.0}}]}, "crop_width": {"Points": [{"interpolation": 2, "co": {"X": 1.0, "Y": -1.0}}]}, "perspective_c2_x": {"Points": [{"interpolation": 2, "co": {"X": 1.0, "Y": -1.0}}]}, "gravity": 4, "file_id": "OPGYZH1CE3", "has_audio": {"Points": [{"interpolation": 2, "co": {"X": 1.0, "Y": -1.0}}]}, "anchor": 0, "end": 140.1600036621094, "location_x": {"Points": [{"interpolation": 2, "co": {"X": 1.0, "Y": 0.0}}]}, "wave_color": {"alpha": {"Points": [{"interpolation": 0, "handle_right": {"X": 0.5, "Y": 0.0}, "handle_left": {"X": 0.5, "Y": 1.0}, "handle_type": 0, "co": {"X": 1.0, "Y": 255.0}}]}, "green": {"Points": [{"interpolation": 0, "handle_right": {"X": 0.5, "Y": 0.0}, "handle_left": {"X": 0.5, "Y": 1.0}, "handle_type": 0, "co": {"X": 1.0, "Y": 123.0}}]}, "red": {"Points": [{"interpolation": 0, "handle_right": {"X": 0.5, "Y": 0.0}, "handle_left": {"X": 0.5, "Y": 1.0}, "handle_type": 0, "co": {"X": 1.0, "Y": 0.0}}]}, "blue": {"Points": [{"interpolation": 0, "handle_right": {"X": 0.5, "Y": 0.0}, "handle_left": {"X": 0.5, "Y": 1.0}, "handle_type": 0, "co": {"X": 1.0, "Y": 255.0}}]}}, "title": "Enscape_2019-03-11-18-17-57.mp4", "perspective_c3_x": {"Points": [{"interpolation": 2, "co": {"X": 1.0, "Y": -1.0}}]}, "scale_y": {"Points": [{"interpolation": 2, "co": {"X": 1.0, "Y": 1.0}}]}, "perspective_c2_y": {"Points": [{"interpolation": 2, "co": {"X": 1.0, "Y": -1.0}}]}, "time": {"Points": [{"interpolation": 2, "co": {"X": 1.0, "Y": 1.0}}]}, "scale_x": {"Points": [{"interpolation": 2, "co": {"X": 1.0, "Y": 1.0}}]}, "volume": {"Points": [{"interpolation": 2, "co": {"X": 1.0, "Y": 1.0}}]}, "id": "GP7FPK11R1", "crop_y": {"Points": [{"interpolation": 2, "co": {"X": 1.0, "Y": 0.0}}]}, "perspective_c4_y": {"Points": [{"interpolation": 2, "co": {"X": 1.0, "Y": -1.0}}]}, "channel_filter": {"Points": [{"interpolation": 2, "co": {"X": 1.0, "Y": -1.0}}]}, "crop_x": {"Points": [{"interpolation": 2, "co": {"X": 1.0, "Y": 0.0}}]}, "scale": 1, "shear_y": {"Points": [{"interpolation": 2, "co": {"X": 1.0, "Y": 0.0}}]}, "image": "C:\\Users\\theor\\.openshot_qt\\thumbnail\\OPGYZH1CE3.png", "location_y": {"Points": [{"interpolation": 2, "co": {"X": 1.0, "Y": 0.0}}]}, "has_video": {"Points": [{"interpolation": 2, "co": {"X": 1.0, "Y": -1.0}}]}}, "partial": false, "key": ["clips", {"id": "GP7FPK11R1"}], "type": "update", "value": {"id": "GP7FPK11R1", "end": 140.1600036621094, "start": 0, "layer": 0, "image": "C:\\Users\\theor\\.openshot_qt\\thumbnail\\OPGYZH1CE3.png", "position": 0}}, {"old_values": [{"perspective_c3_y": {"Points": [{"interpolation": 2, "co": {"X": 1.0, "Y": -1.0}}]}, "alpha": {"Points": [{"interpolation": 2, "co": {"X": 1.0, "Y": 1.0}}]}, "shear_x": {"Points": [{"interpolation": 2, "co": {"X": 1.0, "Y": 0.0}}]}, "start": 0, "perspective_c4_x": {"Points": [{"interpolation": 2, "co": {"X": 1.0, "Y": -1.0}}]}, "effects": [], "channel_mapping": {"Points": [{"interpolation": 2, "co": {"X": 1.0, "Y": -1.0}}]}, "rotation": {"Points": [{"interpolation": 2, "co": {"X": 1.0, "Y": 0.0}}]}, "perspective_c1_x": {"Points": [{"interpolation": 2, "co": {"X": 1.0, "Y": -1.0}}]}, "layer": 0, "reader": {"display_ratio": {"num": 4, "den": 3}, "audio_timebase": {"num": 1, "den": 1}, "channels": 0, "height": 768, "path": "C:/Dropbox/GitHub/Organic_Grocery_Store/Transfer/20190311 - Animation/Enscape_2019-03-11-18-17-57.mp4", "video_stream_index": 0, "pixel_ratio": {"num": 1, "den": 1}, "duration": 140.1600036621094, "file_size": "73319803", "video_bit_rate": 4184920, "interlaced_frame": false, "has_audio": false, "audio_stream_index": -1, "fps": {"num": 25, "den": 1}, "acodec": "", "pixel_format": 0, "top_field_first": true, "vcodec": "mpeg4", "type": "FFmpegReader", "sample_rate": 0, "has_single_image": false, "channel_layout": 4, "video_timebase": {"num": 1, "den": 25}, "video_length": "3504", "width": 1024, "audio_bit_rate": 0, "has_video": true}, "position": 0, "display": 0, "waveform": false, "duration": 140.1600036621094, "crop_height": {"Points": [{"interpolation": 2, "co": {"X": 1.0, "Y": -1.0}}]}, "perspective_c1_y": {"Points": [{"interpolation": 2, "co": {"X": 1.0, "Y": -1.0}}]}, "crop_width": {"Points": [{"interpolation": 2, "co": {"X": 1.0, "Y": -1.0}}]}, "perspective_c2_x": {"Points": [{"interpolation": 2, "co": {"X": 1.0, "Y": -1.0}}]}, "gravity": 4, "file_id": "OPGYZH1CE3", "has_audio": {"Points": [{"interpolation": 2, "co": {"X": 1.0, "Y": -1.0}}]}, "anchor": 0, "end": 140.1600036621094, "location_x": {"Points": [{"interpolation": 2, "co": {"X": 1.0, "Y": 0.0}}]}, "wave_color": {"alpha": {"Points": [{"interpolation": 0, "handle_right": {"X": 0.5, "Y": 0.0}, "handle_left": {"X": 0.5, "Y": 1.0}, "handle_type": 0, "co": {"X": 1.0, "Y": 255.0}}]}, "green": {"Points": [{"interpolation": 0, "handle_right": {"X": 0.5, "Y": 0.0}, "handle_left": {"X": 0.5, "Y": 1.0}, "handle_type": 0, "co": {"X": 1.0, "Y": 123.0}}]}, "red": {"Points": [{"interpolation": 0, "handle_right": {"X": 0.5, "Y": 0.0}, "handle_left": {"X": 0.5, "Y": 1.0}, "handle_type": 0, "co": {"X": 1.0, "Y": 0.0}}]}, "blue": {"Points": [{"interpolation": 0, "handle_right": {"X": 0.5, "Y": 0.0}, "handle_left": {"X": 0.5, "Y": 1.0}, "handle_type": 0, "co": {"X": 1.0, "Y": 255.0}}]}}, "title": "Enscape_2019-03-11-18-17-57.mp4", "perspective_c3_x": {"Points": [{"interpolation": 2, "co": {"X": 1.0, "Y": -1.0}}]}, "scale_y": {"Points": [{"interpolation": 2, "co": {"X": 1.0, "Y": 1.0}}]}, "perspective_c2_y": {"Points": [{"interpolation": 2, "co": {"X": 1.0, "Y": -1.0}}]}, "time": {"Points": [{"interpolation": 2, "co": {"X": 1.0, "Y": 1.0}}]}, "scale_x": {"Points": [{"interpolation": 2, "co": {"X": 1.0, "Y": 1.0}}]}, "volume": {"Points": [{"interpolation": 2, "co": {"X": 1.0, "Y": 1.0}}]}, "id": "GP7FPK11R1", "crop_y": {"Points": [{"interpolation": 2, "co": {"X": 1.0, "Y": 0.0}}]}, "perspective_c4_y": {"Points": [{"interpolation": 2, "co": {"X": 1.0, "Y": -1.0}}]}, "channel_filter": {"Points": [{"interpolation": 2, "co": {"X": 1.0, "Y": -1.0}}]}, "crop_x": {"Points": [{"interpolation": 2, "co": {"X": 1.0, "Y": 0.0}}]}, "scale": 1, "shear_y": {"Points": [{"interpolation": 2, "co": {"X": 1.0, "Y": 0.0}}]}, "image": "C:\\Users\\theor\\.openshot_qt\\thumbnail\\OPGYZH1CE3.png", "location_y": {"Points": [{"interpolation": 2, "co": {"X": 1.0, "Y": 0.0}}]}, "has_video": {"Points": [{"interpolation": 2, "co": {"X": 1.0, "Y": -1.0}}]}}, {"perspective_c3_y": {"Points": [{"interpolation": 2, "co": {"X": 1.0, "Y": -1.0}}]}, "alpha": {"Points": [{"interpolation": 2, "co": {"X": 1.0, "Y": 1.0}}]}, "shear_x": {"Points": [{"interpolation": 2, "co": {"X": 1.0, "Y": 0.0}}]}, "start": 0, "perspective_c4_x": {"Points": [{"interpolation": 2, "co": {"X": 1.0, "Y": -1.0}}]}, "effects": [], "channel_mapping": {"Points": [{"interpolation": 2, "co": {"X": 1.0, "Y": -1.0}}]}, "rotation": {"Points": [{"interpolation": 2, "co": {"X": 1.0, "Y": 0.0}}]}, "perspective_c1_x": {"Points": [{"interpolation": 2, "co": {"X": 1.0, "Y": -1.0}}]}, "layer": 1, "reader": {"display_ratio": {"num": 1, "den": 1}, "audio_timebase": {"num": 1, "den": 14112000}, "channels": 2, "height": 480, "path": "C:/Users/theor/Music/Replay Music Recordings/Replay Music 2019-03-12/Not Recognized-Track2.mp3", "video_stream_index": -1, "pixel_ratio": {"num": 1, "den": 1}, "duration": 118.0559997558594, "file_size": "1890566", "video_bit_rate": 0, "interlaced_frame": false, "has_audio": true, "audio_stream_index": 0, "fps": {"num": 24, "den": 1}, "acodec": "mp3", "pixel_format": -1, "top_field_first": true, "vcodec": "", "type": "FFmpegReader", "sample_rate": 48000, "has_single_image": false, "channel_layout": 3, "video_timebase": {"num": 1, "den": 24}, "video_length": "2833", "width": 720, "audio_bit_rate": 128000, "has_video": false}, "position": 0, "display": 0, "waveform": false, "duration": 118.0559997558594, "crop_height": {"Points": [{"interpolation": 2, "co": {"X": 1.0, "Y": -1.0}}]}, "perspective_c1_y": {"Points": [{"interpolation": 2, "co": {"X": 1.0, "Y": -1.0}}]}, "crop_width": {"Points": [{"interpolation": 2, "co": {"X": 1.0, "Y": -1.0}}]}, "perspective_c2_x": {"Points": [{"interpolation": 2, "co": {"X": 1.0, "Y": -1.0}}]}, "gravity": 4, "file_id": "5TEJ096RKR", "has_audio": {"Points": [{"interpolation": 2, "co": {"X": 1.0, "Y": -1.0}}]}, "anchor": 0, "end": 118.0559997558594, "location_x": {"Points": [{"interpolation": 2, "co": {"X": 1.0, "Y": 0.0}}]}, "wave_color": {"alpha": {"Points": [{"interpolation": 0, "handle_right": {"X": 0.5, "Y": 0.0}, "handle_left": {"X": 0.5, "Y": 1.0}, "handle_type": 0, "co": {"X": 1.0, "Y": 255.0}}]}, "green": {"Points": [{"interpolation": 0, "handle_right": {"X": 0.5, "Y": 0.0}, "handle_left": {"X": 0.5, "Y": 1.0}, "handle_type": 0, "co": {"X": 1.0, "Y": 123.0}}]}, "red": {"Points": [{"interpolation": 0, "handle_right": {"X": 0.5, "Y": 0.0}, "handle_left": {"X": 0.5, "Y": 1.0}, "handle_type": 0, "co": {"X": 1.0, "Y": 0.0}}]}, "blue": {"Points": [{"interpolation": 0, "handle_right": {"X": 0.5, "Y": 0.0}, "handle_left": {"X": 0.5, "Y": 1.0}, "handle_type": 0, "co": {"X": 1.0, "Y": 255.0}}]}}, "title": "Not Recognized-Track2.mp3", "perspective_c3_x": {"Points": [{"interpolation": 2, "co": {"X": 1.0, "Y": -1.0}}]}, "scale_y": {"Points": [{"interpolation": 2, "co": {"X": 1.0, "Y": 1.0}}]}, "perspective_c2_y": {"Points": [{"interpolation": 2, "co": {"X": 1.0, "Y": -1.0}}]}, "time": {"Points": [{"interpolation": 2, "co": {"X": 1.0, "Y": 1.0}}]}, "scale_x": {"Points": [{"interpolation": 2, "co": {"X": 1.0, "Y": 1.0}}]}, "volume": {"Points": [{"interpolation": 2, "co": {"X": 1.0, "Y": 1.0}}]}, "id": "7P4R5BJNZZ", "crop_y": {"Points": [{"interpolation": 2, "co": {"X": 1.0, "Y": 0.0}}]}, "perspective_c4_y": {"Points": [{"interpolation": 2, "co": {"X": 1.0, "Y": -1.0}}]}, "channel_filter": {"Points": [{"interpolation": 2, "co": {"X": 1.0, "Y": -1.0}}]}, "crop_x": {"Points": [{"interpolation": 2, "co": {"X": 1.0, "Y": 0.0}}]}, "scale": 1, "shear_y": {"Points": [{"interpolation": 2, "co": {"X": 1.0, "Y": 0.0}}]}, "image": "C:\\Program Files\\OpenShot Video Editor\\images\\AudioThumbnail.png", "location_y": {"Points": [{"interpolation": 2, "co": {"X": 1.0, "Y": 0.0}}]}, "has_video": {"Points": [{"interpolation": 2, "co": {"X": 1.0, "Y": -1.0}}]}}], "partial": false, "key": ["clips"], "type": "insert", "value": {"perspective_c3_y": {"Points": [{"interpolation": 2, "co": {"X": 1.0, "Y": -1.0}}]}, "alpha": {"Points": [{"interpolation": 2, "co": {"X": 1.0, "Y": 1.0}}]}, "shear_x": {"Points": [{"interpolation": 2, "co": {"X": 1.0, "Y": 0.0}}]}, "start": 33.6, "waveform": false, "effects": [], "file_id": "OPGYZH1CE3", "rotation": {"Points": [{"interpolation": 2, "co": {"X": 1.0, "Y": 0.0}}]}, "perspective_c2_x": {"Points": [{"interpolation": 2, "co": {"X": 1.0, "Y": -1.0}}]}, "reader": {"display_ratio": {"num": 4, "den": 3}, "audio_timebase": {"num": 1, "den": 1}, "height": 768, "path": "C:/Dropbox/GitHub/Organic_Grocery_Store/Transfer/20190311 - Animation/Enscape_2019-03-11-18-17-57.mp4", "video_stream_index": 0, "pixel_ratio": {"num": 1, "den": 1}, "duration": 140.1600036621094, "file_size": "73319803", "video_timebase": {"num": 1, "den": 25}, "video_bit_rate": 4184920, "interlaced_frame": false, "has_audio": false, "audio_stream_index": -1, "fps": {"num": 25, "den": 1}, "acodec": "", "pixel_format": 0, "top_field_first": true, "vcodec": "mpeg4", "type": "FFmpegReader", "sample_rate": 0, "has_single_image": false, "channel_layout": 4, "channels": 0, "video_length": "3504", "width": 1024, "audio_bit_rate": 0, "has_video": true}, "position": 33.6, "volume": {"Points": [{"interpolation": 2, "co": {"X": 1.0, "Y": 1.0}}]}, "time": {"Points": [{"interpolation": 2, "co": {"X": 1.0, "Y": 1.0}}]}, "duration": 140.1600036621094, "crop_height": {"Points": [{"interpolation": 2, "co": {"X": 1.0, "Y": -1.0}}]}, "perspective_c1_y": {"Points": [{"interpolation": 2, "co": {"X": 1.0, "Y": -1.0}}]}, "crop_width": {"Points": [{"interpolation": 2, "co": {"X": 1.0, "Y": -1.0}}]}, "layer": 0, "gravity": 4, "perspective_c4_x": {"Points": [{"interpolation": 2, "co": {"X": 1.0, "Y": -1.0}}]}, "has_audio": {"Points": [{"interpolation": 2, "co": {"X": 1.0, "Y": -1.0}}]}, "anchor": 0, "end": 43.68, "location_x": {"Points": [{"interpolation": 2, "co": {"X": 1.0, "Y": 0.0}}]}, "display": 0, "title": "Enscape_2019-03-11-18-17-57.mp4", "perspective_c3_x": {"Points": [{"interpolation": 2, "co": {"X": 1.0, "Y": -1.0}}]}, "channel_mapping": {"Points": [{"interpolation": 2, "co": {"X": 1.0, "Y": -1.0}}]}, "wave_color": {"alpha": {"Points": [{"interpolation": 0, "handle_right": {"X": 0.5, "Y": 0.0}, "handle_left": {"X": 0.5, "Y": 1.0}, "handle_type": 0, "co": {"X": 1.0, "Y": 255.0}}]}, "red": {"Points": [{"interpolation": 0, "handle_right": {"X": 0.5, "Y": 0.0}, "handle_left": {"X": 0.5, "Y": 1.0}, "handle_type": 0, "co": {"X": 1.0, "Y": 0.0}}]}, "green": {"Points": [{"interpolation": 0, "handle_right": {"X": 0.5, "Y": 0.0}, "handle_left": {"X": 0.5, "Y": 1.0}, "handle_type": 0, "co": {"X": 1.0, "Y": 123.0}}]}, "blue": {"Points": [{"interpolation": 0, "handle_right": {"X": 0.5, "Y": 0.0}, "handle_left": {"X": 0.5, "Y": 1.0}, "handle_type": 0, "co": {"X": 1.0, "Y": 255.0}}]}}, "perspective_c2_y": {"Points": [{"interpolation": 2, "co": {"X": 1.0, "Y": -1.0}}]}, "perspective_c1_x": {"Points": [{"interpolation": 2, "co": {"X": 1.0, "Y": -1.0}}]}, "scale_x": {"Points": [{"interpolation": 2, "co": {"X": 1.0, "Y": 1.0}}]}, "scale_y": {"Points": [{"interpolation": 2, "co": {"X": 1.0, "Y": 1.0}}]}, "id": "97GE16GTDV", "crop_y": {"Points": [{"interpolation": 2, "co": {"X": 1.0, "Y": 0.0}}]}, "perspective_c4_y": {"Points": [{"interpolation": 2, "co": {"X": 1.0, "Y": -1.0}}]}, "shear_y": {"Points": [{"interpolation": 2, "co": {"X": 1.0, "Y": 0.0}}]}, "channel_filter": {"Points": [{"interpolation": 2, "co": {"X": 1.0, "Y": -1.0}}]}, "crop_x": {"Points": [{"interpolation": 2, "co": {"X": 1.0, "Y": 0.0}}]}, "scale": 1, "image": "C:\\Users\\theor\\.openshot_qt\\thumbnail\\97GE16GTDV-841.png", "location_y": {"Points": [{"interpolation": 2, "co": {"X": 1.0, "Y": 0.0}}]}, "has_video": {"Points": [{"interpolation": 2, "co": {"X": 1.0, "Y": -1.0}}]}}}, {"old_values": {"perspective_c3_y": {"Points": [{"interpolation": 2, "co": {"X": 1.0, "Y": -1.0}}]}, "alpha": {"Points": [{"interpolation": 2, "co": {"X": 1.0, "Y": 1.0}}]}, "shear_x": {"Points": [{"interpolation": 2, "co": {"X": 1.0, "Y": 0.0}}]}, "start": 43.04, "effects": [], "channel_mapping": {"Points": [{"interpolation": 2, "co": {"X": 1.0, "Y": -1.0}}]}, "rotation": {"Points": [{"interpolation": 2, "co": {"X": 1.0, "Y": 0.0}}]}, "layer": 0, "reader": {"display_ratio": {"num": 4, "den": 3}, "audio_timebase": {"num": 1, "den": 1}, "height": 768, "path": "C:/Dropbox/GitHub/Organic_Grocery_Store/Transfer/20190311 - Animation/Enscape_2019-03-11-18-17-57.mp4", "video_stream_index": 0, "pixel_ratio": {"num": 1, "den": 1}, "duration": 140.1600036621094, "channels": 0, "video_bit_rate": 4184920, "interlaced_frame": false, "has_audio": false, "audio_stream_index": -1, "fps": {"num": 25, "den": 1}, "acodec": "", "pixel_format": 0, "top_field_first": true, "vcodec": "mpeg4", "type": "FFmpegReader", "sample_rate": 0, "file_size": "73319803", "has_single_image": false, "channel_layout": 4, "video_timebase": {"num": 1, "den": 25}, "video_length": "3504", "width": 1024, "audio_bit_rate": 0, "has_video": true}, "position": 43.04, "display": 0, "waveform": false, "duration": 140.1600036621094, "crop_height": {"Points": [{"interpolation": 2, "co": {"X": 1.0, "Y": -1.0}}]}, "perspective_c1_y": {"Points": [{"interpolation": 2, "co": {"X": 1.0, "Y": -1.0}}]}, "crop_width": {"Points": [{"interpolation": 2, "co": {"X": 1.0, "Y": -1.0}}]}, "perspective_c2_x": {"Points": [{"interpolation": 2, "co": {"X": 1.0, "Y": -1.0}}]}, "gravity": 4, "perspective_c4_x": {"Points": [{"interpolation": 2, "co": {"X": 1.0, "Y": -1.0}}]}, "has_audio": {"Points": [{"interpolation": 2, "co": {"X": 1.0, "Y": -1.0}}]}, "anchor": 0, "file_id": "OPGYZH1CE3", "time": {"Points": [{"interpolation": 2, "co": {"X": 1.0, "Y": 1.0}}]}, "end": 140.1600036621094, "location_x": {"Points": [{"interpolation": 2, "co": {"X": 1.0, "Y": 0.0}}]}, "wave_color": {"alpha": {"Points": [{"interpolation": 0, "handle_right": {"X": 0.5, "Y": 0.0}, "handle_left": {"X": 0.5, "Y": 1.0}, "handle_type": 0, "co": {"X": 1.0, "Y": 255.0}}]}, "green": {"Points": [{"interpolation": 0, "handle_right": {"X": 0.5, "Y": 0.0}, "handle_left": {"X": 0.5, "Y": 1.0}, "handle_type": 0, "co": {"X": 1.0, "Y": 123.0}}]}, "red": {"Points": [{"interpolation": 0, "handle_right": {"X": 0.5, "Y": 0.0}, "handle_left": {"X": 0.5, "Y": 1.0}, "handle_type": 0, "co": {"X": 1.0, "Y": 0.0}}]}, "blue": {"Points": [{"interpolation": 0, "handle_right": {"X": 0.5, "Y": 0.0}, "handle_left": {"X": 0.5, "Y": 1.0}, "handle_type": 0, "co": {"X": 1.0, "Y": 255.0}}]}}, "title": "Enscape_2019-03-11-18-17-57.mp4", "perspective_c3_x": {"Points": [{"interpolation": 2, "co": {"X": 1.0, "Y": -1.0}}]}, "scale_y": {"Points": [{"interpolation": 2, "co": {"X": 1.0, "Y": 1.0}}]}, "perspective_c2_y": {"Points": [{"interpolation": 2, "co": {"X": 1.0, "Y": -1.0}}]}, "perspective_c1_x": {"Points": [{"interpolation": 2, "co": {"X": 1.0, "Y": -1.0}}]}, "scale_x": {"Points": [{"interpolation": 2, "co": {"X": 1.0, "Y": 1.0}}]}, "volume": {"Points": [{"interpolation": 2, "co": {"X": 1.0, "Y": 1.0}}]}, "id": "97GE16GTDV", "crop_y": {"Points": [{"interpolation": 2, "co": {"X": 1.0, "Y": 0.0}}]}, "perspective_c4_y": {"Points": [{"interpolation": 2, "co": {"X": 1.0, "Y": -1.0}}]}, "channel_filter": {"Points": [{"interpolation": 2, "co": {"X": 1.0, "Y": -1.0}}]}, "crop_x": {"Points": [{"interpolation": 2, "co": {"X": 1.0, "Y": 0.0}}]}, "scale": 1, "shear_y": {"Points": [{"interpolation": 2, "co": {"X": 1.0, "Y": 0.0}}]}, "image": "C:\\Users\\theor\\.openshot_qt\\thumbnail\\OPGYZH1CE3.png", "location_y": {"Points": [{"interpolation": 2, "co": {"X": 1.0, "Y": 0.0}}]}, "has_video": {"Points": [{"interpolation": 2, "co": {"X": 1.0, "Y": -1.0}}]}}, "partial": false, "key": ["clips", {"id": "97GE16GTDV"}], "type": "update", "value": {"perspective_c3_y": {"Points": [{"interpolation": 2, "co": {"X": 1.0, "Y": -1.0}}]}, "alpha": {"Points": [{"interpolation": 2, "co": {"X": 1.0, "Y": 1.0}}]}, "shear_x": {"Points": [{"interpolation": 2, "co": {"X": 1.0, "Y": 0.0}}]}, "start": 43.04, "perspective_c4_x": {"Points": [{"interpolation": 2, "co": {"X": 1.0, "Y": -1.0}}]}, "effects": [], "channel_mapping": {"Points": [{"interpolation": 2, "co": {"X": 1.0, "Y": -1.0}}]}, "rotation": {"Points": [{"interpolation": 2, "co": {"X": 1.0, "Y": 0.0}}]}, "perspective_c1_x": {"Points": [{"interpolation": 2, "co": {"X": 1.0, "Y": -1.0}}]}, "layer": 0, "position": 43.04, "display": 0, "time": {"Points": [{"interpolation": 2, "co": {"X": 1.0, "Y": 1.0}}]}, "duration": 140.1600036621094, "crop_height": {"Points": [{"interpolation": 2, "co": {"X": 1.0, "Y": -1.0}}]}, "perspective_c1_y": {"Points": [{"interpolation": 2, "co": {"X": 1.0, "Y": -1.0}}]}, "crop_width": {"Points": [{"interpolation": 2, "co": {"X": 1.0, "Y": -1.0}}]}, "perspective_c2_x": {"Points": [{"interpolation": 2, "co": {"X": 1.0, "Y": -1.0}}]}, "gravity": 4, "file_id": "OPGYZH1CE3", "has_audio": {"Points": [{"interpolation": 2, "co": {"X": 1.0, "Y": -1.0}}]}, "anchor": 0, "end": 140.1600036621094, "location_x": {"Points": [{"interpolation": 2, "co": {"X": 1.0, "Y": 0.0}}]}, "wave_color": {"alpha": {"Points": [{"interpolation": 0, "handle_right": {"X": 0.5, "Y": 0.0}, "handle_left": {"X": 0.5, "Y": 1.0}, "handle_type": 0, "co": {"X": 1.0, "Y": 255.0}}]}, "green": {"Points": [{"interpolation": 0, "handle_right": {"X": 0.5, "Y": 0.0}, "handle_left": {"X": 0.5, "Y": 1.0}, "handle_type": 0, "co": {"X": 1.0, "Y": 123.0}}]}, "red": {"Points": [{"interpolation": 0, "handle_right": {"X": 0.5, "Y": 0.0}, "handle_left": {"X": 0.5, "Y": 1.0}, "handle_type": 0, "co": {"X": 1.0, "Y": 0.0}}]}, "blue": {"Points": [{"interpolation": 0, "handle_right": {"X": 0.5, "Y": 0.0}, "handle_left": {"X": 0.5, "Y": 1.0}, "handle_type": 0, "co": {"X": 1.0, "Y": 255.0}}]}}, "title": "Enscape_2019-03-11-18-17-57.mp4", "perspective_c3_x": {"Points": [{"interpolation": 2, "co": {"X": 1.0, "Y": -1.0}}]}, "scale_y": {"Points": [{"interpolation": 2, "co": {"X": 1.0, "Y": 1.0}}]}, "perspective_c2_y": {"Points": [{"interpolation": 2, "co": {"X": 1.0, "Y": -1.0}}]}, "waveform": false, "scale_x": {"Points": [{"interpolation": 2, "co": {"X": 1.0, "Y": 1.0}}]}, "volume": {"Points": [{"interpolation": 2, "co": {"X": 1.0, "Y": 1.0}}]}, "id": "97GE16GTDV", "crop_y": {"Points": [{"interpolation": 2, "co": {"X": 1.0, "Y": 0.0}}]}, "perspective_c4_y": {"Points": [{"interpolation": 2, "co": {"X": 1.0, "Y": -1.0}}]}, "channel_filter": {"Points": [{"interpolation": 2, "co": {"X": 1.0, "Y": -1.0}}]}, "crop_x": {"Points": [{"interpolation": 2, "co": {"X": 1.0, "Y": 0.0}}]}, "scale": 1, "shear_y": {"Points": [{"interpolation": 2, "co": {"X": 1.0, "Y": 0.0}}]}, "image": "C:\\Users\\theor\\.openshot_qt\\thumbnail\\97GE16GTDV-1077.png", "location_y": {"Points": [{"interpolation": 2, "co": {"X": 1.0, "Y": 0.0}}]}, "has_video": {"Points": [{"interpolation": 2, "co": {"X": 1.0, "Y": -1.0}}]}}}, {"old_values": {"perspective_c3_y": {"Points": [{"interpolation": 2, "co": {"X": 1.0, "Y": -1.0}}]}, "alpha": {"Points": [{"interpolation": 2, "co": {"X": 1.0, "Y": 1.0}}]}, "shear_x": {"Points": [{"interpolation": 2, "co": {"X": 1.0, "Y": 0.0}}]}, "start": 0, "perspective_c4_x": {"Points": [{"interpolation": 2, "co": {"X": 1.0, "Y": -1.0}}]}, "effects": [], "channel_mapping": {"Points": [{"interpolation": 2, "co": {"X": 1.0, "Y": -1.0}}]}, "rotation": {"Points": [{"interpolation": 2, "co": {"X": 1.0, "Y": 0.0}}]}, "perspective_c1_x": {"Points": [{"interpolation": 2, "co": {"X": 1.0, "Y": -1.0}}]}, "layer": 0, "reader": {"display_ratio": {"num": 4, "den": 3}, "audio_timebase": {"num": 1, "den": 1}, "channels": 0, "height": 768, "path": "C:/Dropbox/GitHub/Organic_Grocery_Store/Transfer/20190311 - Animation/Enscape_2019-03-11-18-17-57.mp4", "video_stream_index": 0, "pixel_ratio": {"num": 1, "den": 1}, "duration": 140.1600036621094, "file_size": "73319803", "video_bit_rate": 4184920, "interlaced_frame": false, "has_audio": false, "audio_stream_index": -1, "fps": {"num": 25, "den": 1}, "acodec": "", "pixel_format": 0, "top_field_first": true, "vcodec": "mpeg4", "type": "FFmpegReader", "sample_rate": 0, "has_single_image": false, "channel_layout": 4, "video_timebase": {"num": 1, "den": 25}, "video_length": "3504", "width": 1024, "audio_bit_rate": 0, "has_video": true}, "position": 0, "display": 0, "waveform": false, "duration": 140.1600036621094, "crop_height": {"Points": [{"interpolation": 2, "co": {"X": 1.0, "Y": -1.0}}]}, "perspective_c1_y": {"Points": [{"interpolation": 2, "co": {"X": 1.0, "Y": -1.0}}]}, "crop_width": {"Points": [{"interpolation": 2, "co": {"X": 1.0, "Y": -1.0}}]}, "perspective_c2_x": {"Points": [{"interpolation": 2, "co": {"X": 1.0, "Y": -1.0}}]}, "gravity": 4, "file_id": "OPGYZH1CE3", "has_audio": {"Points": [{"interpolation": 2, "co": {"X": 1.0, "Y": -1.0}}]}, "anchor": 0, "end": 140.1600036621094, "location_x": {"Points": [{"interpolation": 2, "co": {"X": 1.0, "Y": 0.0}}]}, "wave_color": {"alpha": {"Points": [{"interpolation": 0, "handle_right": {"X": 0.5, "Y": 0.0}, "handle_left": {"X": 0.5, "Y": 1.0}, "handle_type": 0, "co": {"X": 1.0, "Y": 255.0}}]}, "green": {"Points": [{"interpolation": 0, "handle_right": {"X": 0.5, "Y": 0.0}, "handle_left": {"X": 0.5, "Y": 1.0}, "handle_type": 0, "co": {"X": 1.0, "Y": 123.0}}]}, "red": {"Points": [{"interpolation": 0, "handle_right": {"X": 0.5, "Y": 0.0}, "handle_left": {"X": 0.5, "Y": 1.0}, "handle_type": 0, "co": {"X": 1.0, "Y": 0.0}}]}, "blue": {"Points": [{"interpolation": 0, "handle_right": {"X": 0.5, "Y": 0.0}, "handle_left": {"X": 0.5, "Y": 1.0}, "handle_type": 0, "co": {"X": 1.0, "Y": 255.0}}]}}, "title": "Enscape_2019-03-11-18-17-57.mp4", "perspective_c3_x": {"Points": [{"interpolation": 2, "co": {"X": 1.0, "Y": -1.0}}]}, "scale_y": {"Points": [{"interpolation": 2, "co": {"X": 1.0, "Y": 1.0}}]}, "perspective_c2_y": {"Points": [{"interpolation": 2, "co": {"X": 1.0, "Y": -1.0}}]}, "time": {"Points": [{"interpolation": 2, "co": {"X": 1.0, "Y": 1.0}}]}, "scale_x": {"Points": [{"interpolation": 2, "co": {"X": 1.0, "Y": 1.0}}]}, "volume": {"Points": [{"interpolation": 2, "co": {"X": 1.0, "Y": 1.0}}]}, "id": "GP7FPK11R1", "crop_y": {"Points": [{"interpolation": 2, "co": {"X": 1.0, "Y": 0.0}}]}, "perspective_c4_y": {"Points": [{"interpolation": 2, "co": {"X": 1.0, "Y": -1.0}}]}, "channel_filter": {"Points": [{"interpolation": 2, "co": {"X": 1.0, "Y": -1.0}}]}, "crop_x": {"Points": [{"interpolation": 2, "co": {"X": 1.0, "Y": 0.0}}]}, "scale": 1, "shear_y": {"Points": [{"interpolation": 2, "co": {"X": 1.0, "Y": 0.0}}]}, "image": "C:\\Users\\theor\\.openshot_qt\\thumbnail\\OPGYZH1CE3.png", "location_y": {"Points": [{"interpolation": 2, "co": {"X": 1.0, "Y": 0.0}}]}, "has_video": {"Points": [{"interpolation": 2, "co": {"X": 1.0, "Y": -1.0}}]}}, "partial": false, "key": ["clips", {"id": "GP7FPK11R1"}], "type": "update", "value": {"perspective_c3_y": {"Points": [{"interpolation": 2, "co": {"X": 1.0, "Y": -1.0}}]}, "alpha": {"Points": [{"interpolation": 2, "co": {"X": 1.0, "Y": 1.0}}]}, "shear_x": {"Points": [{"interpolation": 2, "co": {"X": 1.0, "Y": 0.0}}]}, "start": 0, "perspective_c4_x": {"Points": [{"interpolation": 2, "co": {"X": 1.0, "Y": -1.0}}]}, "effects": [], "channel_mapping": {"Points": [{"interpolation": 2, "co": {"X": 1.0, "Y": -1.0}}]}, "rotation": {"Points": [{"interpolation": 2, "co": {"X": 1.0, "Y": 0.0}}]}, "perspective_c1_x": {"Points": [{"interpolation": 2, "co": {"X": 1.0, "Y": -1.0}}]}, "layer": 0, "position": 0, "display": 0, "time": {"Points": [{"interpolation": 2, "co": {"X": 1.0, "Y": 1.0}}]}, "duration": 140.1600036621094, "crop_height": {"Points": [{"interpolation": 2, "co": {"X": 1.0, "Y": -1.0}}]}, "perspective_c1_y": {"Points": [{"interpolation": 2, "co": {"X": 1.0, "Y": -1.0}}]}, "crop_width": {"Points": [{"interpolation": 2, "co": {"X": 1.0, "Y": -1.0}}]}, "perspective_c2_x": {"Points": [{"interpolation": 2, "co": {"X": 1.0, "Y": -1.0}}]}, "gravity": 4, "file_id": "OPGYZH1CE3", "has_audio": {"Points": [{"interpolation": 2, "co": {"X": 1.0, "Y": -1.0}}]}, "anchor": 0, "end": 43.04, "location_x": {"Points": [{"interpolation": 2, "co": {"X": 1.0, "Y": 0.0}}]}, "wave_color": {"alpha": {"Points": [{"interpolation": 0, "handle_right": {"X": 0.5, "Y": 0.0}, "handle_left": {"X": 0.5, "Y": 1.0}, "handle_type": 0, "co": {"X": 1.0, "Y": 255.0}}]}, "green": {"Points": [{"interpolation": 0, "handle_right": {"X": 0.5, "Y": 0.0}, "handle_left": {"X": 0.5, "Y": 1.0}, "handle_type": 0, "co": {"X": 1.0, "Y": 123.0}}]}, "red": {"Points": [{"interpolation": 0, "handle_right": {"X": 0.5, "Y": 0.0}, "handle_left": {"X": 0.5, "Y": 1.0}, "handle_type": 0, "co": {"X": 1.0, "Y": 0.0}}]}, "blue": {"Points": [{"interpolation": 0, "handle_right": {"X": 0.5, "Y": 0.0}, "handle_left": {"X": 0.5, "Y": 1.0}, "handle_type": 0, "co": {"X": 1.0, "Y": 255.0}}]}}, "title": "Enscape_2019-03-11-18-17-57.mp4", "perspective_c3_x": {"Points": [{"interpolation": 2, "co": {"X": 1.0, "Y": -1.0}}]}, "scale_y": {"Points": [{"interpolation": 2, "co": {"X": 1.0, "Y": 1.0}}]}, "perspective_c2_y": {"Points": [{"interpolation": 2, "co": {"X": 1.0, "Y": -1.0}}]}, "waveform": false, "scale_x": {"Points": [{"interpolation": 2, "co": {"X": 1.0, "Y": 1.0}}]}, "volume": {"Points": [{"interpolation": 2, "co": {"X": 1.0, "Y": 1.0}}]}, "id": "GP7FPK11R1", "crop_y": {"Points": [{"interpolation": 2, "co": {"X": 1.0, "Y": 0.0}}]}, "perspective_c4_y": {"Points": [{"interpolation": 2, "co": {"X": 1.0, "Y": -1.0}}]}, "channel_filter": {"Points": [{"interpolation": 2, "co": {"X": 1.0, "Y": -1.0}}]}, "crop_x": {"Points": [{"interpolation": 2, "co": {"X": 1.0, "Y": 0.0}}]}, "scale": 1, "shear_y": {"Points": [{"interpolation": 2, "co": {"X": 1.0, "Y": 0.0}}]}, "image": "C:\\Users\\theor\\.openshot_qt\\thumbnail\\OPGYZH1CE3.png", "location_y": {"Points": [{"interpolation": 2, "co": {"X": 1.0, "Y": 0.0}}]}, "has_video": {"Points": [{"interpolation": 2, "co": {"X": 1.0, "Y": -1.0}}]}}}, {"old_values": [{"perspective_c3_y": {"Points": [{"interpolation": 2, "co": {"X": 1.0, "Y": -1.0}}]}, "alpha": {"Points": [{"interpolation": 2, "co": {"X": 1.0, "Y": 1.0}}]}, "shear_x": {"Points": [{"interpolation": 2, "co": {"X": 1.0, "Y": 0.0}}]}, "start": 0, "perspective_c4_x": {"Points": [{"interpolation": 2, "co": {"X": 1.0, "Y": -1.0}}]}, "effects": [], "channel_mapping": {"Points": [{"interpolation": 2, "co": {"X": 1.0, "Y": -1.0}}]}, "rotation": {"Points": [{"interpolation": 2, "co": {"X": 1.0, "Y": 0.0}}]}, "perspective_c1_x": {"Points": [{"interpolation": 2, "co": {"X": 1.0, "Y": -1.0}}]}, "layer": 0, "reader": {"display_ratio": {"num": 4, "den": 3}, "audio_timebase": {"num": 1, "den": 1}, "channels": 0, "height": 768, "path": "C:/Dropbox/GitHub/Organic_Grocery_Store/Transfer/20190311 - Animation/Enscape_2019-03-11-18-17-57.mp4", "video_stream_index": 0, "pixel_ratio": {"num": 1, "den": 1}, "duration": 140.1600036621094, "file_size": "73319803", "video_bit_rate": 4184920, "interlaced_frame": false, "has_audio": false, "audio_stream_index": -1, "fps": {"num": 25, "den": 1}, "acodec": "", "pixel_format": 0, "top_field_first": true, "vcodec": "mpeg4", "type": "FFmpegReader", "sample_rate": 0, "has_single_image": false, "channel_layout": 4, "video_timebase": {"num": 1, "den": 25}, "video_length": "3504", "width": 1024, "audio_bit_rate": 0, "has_video": true}, "position": 0, "display": 0, "waveform": false, "duration": 140.1600036621094, "crop_height": {"Points": [{"interpolation": 2, "co": {"X": 1.0, "Y": -1.0}}]}, "perspective_c1_y": {"Points": [{"interpolation": 2, "co": {"X": 1.0, "Y": -1.0}}]}, "crop_width": {"Points": [{"interpolation": 2, "co": {"X": 1.0, "Y": -1.0}}]}, "perspective_c2_x": {"Points": [{"interpolation": 2, "co": {"X": 1.0, "Y": -1.0}}]}, "gravity": 4, "file_id": "OPGYZH1CE3", "has_audio": {"Points": [{"interpolation": 2, "co": {"X": 1.0, "Y": -1.0}}]}, "anchor": 0, "end": 43.04, "location_x": {"Points": [{"interpolation": 2, "co": {"X": 1.0, "Y": 0.0}}]}, "wave_color": {"alpha": {"Points": [{"interpolation": 0, "handle_right": {"X": 0.5, "Y": 0.0}, "handle_left": {"X": 0.5, "Y": 1.0}, "handle_type": 0, "co": {"X": 1.0, "Y": 255.0}}]}, "red": {"Points": [{"interpolation": 0, "handle_right": {"X": 0.5, "Y": 0.0}, "handle_left": {"X": 0.5, "Y": 1.0}, "handle_type": 0, "co": {"X": 1.0, "Y": 0.0}}]}, "green": {"Points": [{"interpolation": 0, "handle_right": {"X": 0.5, "Y": 0.0}, "handle_left": {"X": 0.5, "Y": 1.0}, "handle_type": 0, "co": {"X": 1.0, "Y": 123.0}}]}, "blue": {"Points": [{"interpolation": 0, "handle_right": {"X": 0.5, "Y": 0.0}, "handle_left": {"X": 0.5, "Y": 1.0}, "handle_type": 0, "co": {"X": 1.0, "Y": 255.0}}]}}, "title": "Enscape_2019-03-11-18-17-57.mp4", "perspective_c3_x": {"Points": [{"interpolation": 2, "co": {"X": 1.0, "Y": -1.0}}]}, "scale_y": {"Points": [{"interpolation": 2, "co": {"X": 1.0, "Y": 1.0}}]}, "perspective_c2_y": {"Points": [{"interpolation": 2, "co": {"X": 1.0, "Y": -1.0}}]}, "time": {"Points": [{"interpolation": 2, "co": {"X": 1.0, "Y": 1.0}}]}, "scale_x": {"Points": [{"interpolation": 2, "co": {"X": 1.0, "Y": 1.0}}]}, "volume": {"Points": [{"interpolation": 2, "co": {"X": 1.0, "Y": 1.0}}]}, "id": "GP7FPK11R1", "crop_y": {"Points": [{"interpolation": 2, "co": {"X": 1.0, "Y": 0.0}}]}, "perspective_c4_y": {"Points": [{"interpolation": 2, "co": {"X": 1.0, "Y": -1.0}}]}, "channel_filter": {"Points": [{"interpolation": 2, "co": {"X": 1.0, "Y": -1.0}}]}, "crop_x": {"Points": [{"interpolation": 2, "co": {"X": 1.0, "Y": 0.0}}]}, "scale": 1, "shear_y": {"Points": [{"interpolation": 2, "co": {"X": 1.0, "Y": 0.0}}]}, "image": "C:\\Users\\theor\\.openshot_qt\\thumbnail\\OPGYZH1CE3.png", "location_y": {"Points": [{"interpolation": 2, "co": {"X": 1.0, "Y": 0.0}}]}, "has_video": {"Points": [{"interpolation": 2, "co": {"X": 1.0, "Y": -1.0}}]}}, {"perspective_c3_y": {"Points": [{"interpolation": 2, "co": {"X": 1.0, "Y": -1.0}}]}, "alpha": {"Points": [{"interpolation": 2, "co": {"X": 1.0, "Y": 1.0}}]}, "shear_x": {"Points": [{"interpolation": 2, "co": {"X": 1.0, "Y": 0.0}}]}, "start": 0, "perspective_c4_x": {"Points": [{"interpolation": 2, "co": {"X": 1.0, "Y": -1.0}}]}, "effects": [], "channel_mapping": {"Points": [{"interpolation": 2, "co": {"X": 1.0, "Y": -1.0}}]}, "rotation": {"Points": [{"interpolation": 2, "co": {"X": 1.0, "Y": 0.0}}]}, "perspective_c1_x": {"Points": [{"interpolation": 2, "co": {"X": 1.0, "Y": -1.0}}]}, "layer": 1, "reader": {"display_ratio": {"num": 1, "den": 1}, "audio_timebase": {"num": 1, "den": 14112000}, "channels": 2, "height": 480, "path": "C:/Users/theor/Music/Replay Music Recordings/Replay Music 2019-03-12/Not Recognized-Track2.mp3", "video_stream_index": -1, "pixel_ratio": {"num": 1, "den": 1}, "duration": 118.0559997558594, "file_size": "1890566", "video_bit_rate": 0, "interlaced_frame": false, "has_audio": true, "audio_stream_index": 0, "fps": {"num": 24, "den": 1}, "acodec": "mp3", "pixel_format": -1, "top_field_first": true, "vcodec": "", "type": "FFmpegReader", "sample_rate": 48000, "has_single_image": false, "channel_layout": 3, "video_timebase": {"num": 1, "den": 24}, "video_length": "2833", "width": 720, "audio_bit_rate": 128000, "has_video": false}, "position": 0, "display": 0, "waveform": false, "duration": 118.0559997558594, "crop_height": {"Points": [{"interpolation": 2, "co": {"X": 1.0, "Y": -1.0}}]}, "perspective_c1_y": {"Points": [{"interpolation": 2, "co": {"X": 1.0, "Y": -1.0}}]}, "crop_width": {"Points": [{"interpolation": 2, "co": {"X": 1.0, "Y": -1.0}}]}, "perspective_c2_x": {"Points": [{"interpolation": 2, "co": {"X": 1.0, "Y": -1.0}}]}, "gravity": 4, "file_id": "5TEJ096RKR", "has_audio": {"Points": [{"interpolation": 2, "co": {"X": 1.0, "Y": -1.0}}]}, "anchor": 0, "end": 118.0559997558594, "location_x": {"Points": [{"interpolation": 2, "co": {"X": 1.0, "Y": 0.0}}]}, "wave_color": {"alpha": {"Points": [{"interpolation": 0, "handle_right": {"X": 0.5, "Y": 0.0}, "handle_left": {"X": 0.5, "Y": 1.0}, "handle_type": 0, "co": {"X": 1.0, "Y": 255.0}}]}, "green": {"Points": [{"interpolation": 0, "handle_right": {"X": 0.5, "Y": 0.0}, "handle_left": {"X": 0.5, "Y": 1.0}, "handle_type": 0, "co": {"X": 1.0, "Y": 123.0}}]}, "red": {"Points": [{"interpolation": 0, "handle_right": {"X": 0.5, "Y": 0.0}, "handle_left": {"X": 0.5, "Y": 1.0}, "handle_type": 0, "co": {"X": 1.0, "Y": 0.0}}]}, "blue": {"Points": [{"interpolation": 0, "handle_right": {"X": 0.5, "Y": 0.0}, "handle_left": {"X": 0.5, "Y": 1.0}, "handle_type": 0, "co": {"X": 1.0, "Y": 255.0}}]}}, "title": "Not Recognized-Track2.mp3", "perspective_c3_x": {"Points": [{"interpolation": 2, "co": {"X": 1.0, "Y": -1.0}}]}, "scale_y": {"Points": [{"interpolation": 2, "co": {"X": 1.0, "Y": 1.0}}]}, "perspective_c2_y": {"Points": [{"interpolation": 2, "co": {"X": 1.0, "Y": -1.0}}]}, "time": {"Points": [{"interpolation": 2, "co": {"X": 1.0, "Y": 1.0}}]}, "scale_x": {"Points": [{"interpolation": 2, "co": {"X": 1.0, "Y": 1.0}}]}, "volume": {"Points": [{"interpolation": 2, "co": {"X": 1.0, "Y": 1.0}}]}, "id": "7P4R5BJNZZ", "crop_y": {"Points": [{"interpolation": 2, "co": {"X": 1.0, "Y": 0.0}}]}, "perspective_c4_y": {"Points": [{"interpolation": 2, "co": {"X": 1.0, "Y": -1.0}}]}, "channel_filter": {"Points": [{"interpolation": 2, "co": {"X": 1.0, "Y": -1.0}}]}, "crop_x": {"Points": [{"interpolation": 2, "co": {"X": 1.0, "Y": 0.0}}]}, "scale": 1, "shear_y": {"Points": [{"interpolation": 2, "co": {"X": 1.0, "Y": 0.0}}]}, "image": "C:\\Program Files\\OpenShot Video Editor\\images\\AudioThumbnail.png", "location_y": {"Points": [{"interpolation": 2, "co": {"X": 1.0, "Y": 0.0}}]}, "has_video": {"Points": [{"interpolation": 2, "co": {"X": 1.0, "Y": -1.0}}]}}, {"perspective_c3_y": {"Points": [{"interpolation": 2, "co": {"X": 1.0, "Y": -1.0}}]}, "alpha": {"Points": [{"interpolation": 2, "co": {"X": 1.0, "Y": 1.0}}]}, "scale_y": {"Points": [{"interpolation": 2, "co": {"X": 1.0, "Y": 1.0}}]}, "start": 43.04, "effects": [], "file_id": "OPGYZH1CE3", "rotation": {"Points": [{"interpolation": 2, "co": {"X": 1.0, "Y": 0.0}}]}, "perspective_c1_x": {"Points": [{"interpolation": 2, "co": {"X": 1.0, "Y": -1.0}}]}, "perspective_c2_x": {"Points": [{"interpolation": 2, "co": {"X": 1.0, "Y": -1.0}}]}, "reader": {"display_ratio": {"num": 4, "den": 3}, "audio_timebase": {"num": 1, "den": 1}, "height": 768, "path": "C:/Dropbox/GitHub/Organic_Grocery_Store/Transfer/20190311 - Animation/Enscape_2019-03-11-18-17-57.mp4", "video_stream_index": 0, "pixel_ratio": {"num": 1, "den": 1}, "duration": 140.1600036621094, "channels": 0, "video_bit_rate": 4184920, "interlaced_frame": false, "has_audio": false, "audio_stream_index": -1, "fps": {"num": 25, "den": 1}, "acodec": "", "pixel_format": 0, "top_field_first": true, "vcodec": "mpeg4", "type": "FFmpegReader", "sample_rate": 0, "file_size": "73319803", "has_single_image": false, "channel_layout": 4, "video_timebase": {"num": 1, "den": 25}, "video_length": "3504", "width": 1024, "audio_bit_rate": 0, "has_video": true}, "position": 43.04, "display": 0, "waveform": false, "duration": 140.1600036621094, "crop_height": {"Points": [{"interpolation": 2, "co": {"X": 1.0, "Y": -1.0}}]}, "perspective_c1_y": {"Points": [{"interpolation": 2, "co": {"X": 1.0, "Y": -1.0}}]}, "crop_width": {"Points": [{"interpolation": 2, "co": {"X": 1.0, "Y": -1.0}}]}, "layer": 0, "gravity": 4, "perspective_c4_x": {"Points": [{"interpolation": 2, "co": {"X": 1.0, "Y": -1.0}}]}, "has_audio": {"Points": [{"interpolation": 2, "co": {"X": 1.0, "Y": -1.0}}]}, "anchor": 0, "end": 140.1600036621094, "location_x": {"Points": [{"interpolation": 2, "co": {"X": 1.0, "Y": 0.0}}]}, "wave_color": {"alpha": {"Points": [{"interpolation": 0, "handle_right": {"X": 0.5, "Y": 0.0}, "handle_left": {"X": 0.5, "Y": 1.0}, "handle_type": 0, "co": {"X": 1.0, "Y": 255.0}}]}, "red": {"Points": [{"interpolation": 0, "handle_right": {"X": 0.5, "Y": 0.0}, "handle_left": {"X": 0.5, "Y": 1.0}, "handle_type": 0, "co": {"X": 1.0, "Y": 0.0}}]}, "green": {"Points": [{"interpolation": 0, "handle_right": {"X": 0.5, "Y": 0.0}, "handle_left": {"X": 0.5, "Y": 1.0}, "handle_type": 0, "co": {"X": 1.0, "Y": 123.0}}]}, "blue": {"Points": [{"interpolation": 0, "handle_right": {"X": 0.5, "Y": 0.0}, "handle_left": {"X": 0.5, "Y": 1.0}, "handle_type": 0, "co": {"X": 1.0, "Y": 255.0}}]}}, "title": "Enscape_2019-03-11-18-17-57.mp4", "perspective_c3_x": {"Points": [{"interpolation": 2, "co": {"X": 1.0, "Y": -1.0}}]}, "shear_x": {"Points": [{"interpolation": 2, "co": {"X": 1.0, "Y": 0.0}}]}, "perspective_c2_y": {"Points": [{"interpolation": 2, "co": {"X": 1.0, "Y": -1.0}}]}, "time": {"Points": [{"interpolation": 2, "co": {"X": 1.0, "Y": 1.0}}]}, "scale_x": {"Points": [{"interpolation": 2, "co": {"X": 1.0, "Y": 1.0}}]}, "id": "97GE16GTDV", "channel_mapping": {"Points": [{"interpolation": 2, "co": {"X": 1.0, "Y": -1.0}}]}, "crop_y": {"Points": [{"interpolation": 2, "co": {"X": 1.0, "Y": 0.0}}]}, "perspective_c4_y": {"Points": [{"interpolation": 2, "co": {"X": 1.0, "Y": -1.0}}]}, "shear_y": {"Points": [{"interpolation": 2, "co": {"X": 1.0, "Y": 0.0}}]}, "channel_filter": {"Points": [{"interpolation": 2, "co": {"X": 1.0, "Y": -1.0}}]}, "crop_x": {"Points": [{"interpolation": 2, "co": {"X": 1.0, "Y": 0.0}}]}, "scale": 1, "volume": {"Points": [{"interpolation": 2, "co": {"X": 1.0, "Y": 1.0}}]}, "image": "C:\\Users\\theor\\.openshot_qt\\thumbnail\\97GE16GTDV-1077.png", "location_y": {"Points": [{"interpolation": 2, "co": {"X": 1.0, "Y": 0.0}}]}, "has_video": {"Points": [{"interpolation": 2, "co": {"X": 1.0, "Y": -1.0}}]}}], "partial": false, "key": ["clips"], "type": "insert", "value": {"perspective_c3_y": {"Points": [{"interpolation": 2, "co": {"X": 1.0, "Y": -1.0}}]}, "alpha": {"Points": [{"interpolation": 2, "co": {"X": 1.0, "Y": 1.0}}]}, "shear_x": {"Points": [{"interpolation": 2, "co": {"X": 1.0, "Y": 0.0}}]}, "start": 43.68, "waveform": false, "effects": [], "file_id": "OPGYZH1CE3", "rotation": {"Points": [{"interpolation": 2, "co": {"X": 1.0, "Y": 0.0}}]}, "perspective_c2_x": {"Points": [{"interpolation": 2, "co": {"X": 1.0, "Y": -1.0}}]}, "reader": {"display_ratio": {"num": 4, "den": 3}, "audio_timebase": {"num": 1, "den": 1}, "height": 768, "path": "C:/Dropbox/GitHub/Organic_Grocery_Store/Transfer/20190311 - Animation/Enscape_2019-03-11-18-17-57.mp4", "video_stream_index": 0, "pixel_ratio": {"num": 1, "den": 1}, "duration": 140.1600036621094, "file_size": "73319803", "video_timebase": {"num": 1, "den": 25}, "video_bit_rate": 4184920, "interlaced_frame": false, "has_audio": false, "audio_stream_index": -1, "fps": {"num": 25, "den": 1}, "acodec": "", "pixel_format": 0, "top_field_first": true, "vcodec": "mpeg4", "type": "FFmpegReader", "sample_rate": 0, "has_single_image": false, "channel_layout": 4, "channels": 0, "video_length": "3504", "width": 1024, "audio_bit_rate": 0, "has_video": true}, "position": 21.54, "scale": 1, "time": {"Points": [{"interpolation": 2, "co": {"X": 1.0, "Y": 1.0}}]}, "duration": 140.1600036621094, "crop_height": {"Points": [{"interpolation": 2, "co": {"X": 1.0, "Y": -1.0}}]}, "perspective_c1_y": {"Points": [{"interpolation": 2, "co": {"X": 1.0, "Y": -1.0}}]}, "crop_width": {"Points": [{"interpolation": 2, "co": {"X": 1.0, "Y": -1.0}}]}, "layer": 0, "gravity": 4, "perspective_c4_x": {"Points": [{"interpolation": 2, "co": {"X": 1.0, "Y": -1.0}}]}, "has_audio": {"Points": [{"interpolation": 2, "co": {"X": 1.0, "Y": -1.0}}]}, "anchor": 0, "end": 140.1600036621094, "location_x": {"Points": [{"interpolation": 2, "co": {"X": 1.0, "Y": 0.0}}]}, "display": 0, "title": "Enscape_2019-03-11-18-17-57.mp4", "perspective_c3_x": {"Points": [{"interpolation": 2, "co": {"X": 1.0, "Y": -1.0}}]}, "channel_mapping": {"Points": [{"interpolation": 2, "co": {"X": 1.0, "Y": -1.0}}]}, "wave_color": {"alpha": {"Points": [{"interpolation": 0, "handle_right": {"X": 0.5, "Y": 0.0}, "handle_left": {"X": 0.5, "Y": 1.0}, "handle_type": 0, "co": {"X": 1.0, "Y": 255.0}}]}, "red": {"Points": [{"interpolation": 0, "handle_right": {"X": 0.5, "Y": 0.0}, "handle_left": {"X": 0.5, "Y": 1.0}, "handle_type": 0, "co": {"X": 1.0, "Y": 0.0}}]}, "green": {"Points": [{"interpolation": 0, "handle_right": {"X": 0.5, "Y": 0.0}, "handle_left": {"X": 0.5, "Y": 1.0}, "handle_type": 0, "co": {"X": 1.0, "Y": 123.0}}]}, "blue": {"Points": [{"interpolation": 0, "handle_right": {"X": 0.5, "Y": 0.0}, "handle_left": {"X": 0.5, "Y": 1.0}, "handle_type": 0, "co": {"X": 1.0, "Y": 255.0}}]}}, "perspective_c2_y": {"Points": [{"interpolation": 2, "co": {"X": 1.0, "Y": -1.0}}]}, "perspective_c1_x": {"Points": [{"interpolation": 2, "co": {"X": 1.0, "Y": -1.0}}]}, "scale_x": {"Points": [{"interpolation": 2, "co": {"X": 1.0, "Y": 1.0}}]}, "scale_y": {"Points": [{"interpolation": 2, "co": {"X": 1.0, "Y": 1.0}}]}, "id": "GKX48KEXIY", "crop_y": {"Points": [{"interpolation": 2, "co": {"X": 1.0, "Y": 0.0}}]}, "perspective_c4_y": {"Points": [{"interpolation": 2, "co": {"X": 1.0, "Y": -1.0}}]}, "shear_y": {"Points": [{"interpolation": 2, "co": {"X": 1.0, "Y": 0.0}}]}, "channel_filter": {"Points": [{"interpolation": 2, "co": {"X": 1.0, "Y": -1.0}}]}, "crop_x": {"Points": [{"interpolation": 2, "co": {"X": 1.0, "Y": 0.0}}]}, "volume": {"Points": [{"interpolation": 2, "co": {"X": 1.0, "Y": 1.0}}]}, "image": "C:\\Users\\theor\\.openshot_qt\\thumbnail\\GKX48KEXIY-1093.png", "location_y": {"Points": [{"interpolation": 2, "co": {"X": 1.0, "Y": 0.0}}]}, "has_video": {"Points": [{"interpolation": 2, "co": {"X": 1.0, "Y": -1.0}}]}}}, {"old_values": {"perspective_c3_y": {"Points": [{"interpolation": 2, "co": {"X": 1.0, "Y": -1.0}}]}, "alpha": {"Points": [{"interpolation": 2, "co": {"X": 1.0, "Y": 1.0}}]}, "scale_y": {"Points": [{"interpolation": 2, "co": {"X": 1.0, "Y": 1.0}}]}, "start": 43.68, "effects": [], "file_id": "OPGYZH1CE3", "rotation": {"Points": [{"interpolation": 2, "co": {"X": 1.0, "Y": 0.0}}]}, "layer": 0, "reader": {"display_ratio": {"num": 4, "den": 3}, "audio_timebase": {"num": 1, "den": 1}, "channels": 0, "height": 768, "path": "C:/Dropbox/GitHub/Organic_Grocery_Store/Transfer/20190311 - Animation/Enscape_2019-03-11-18-17-57.mp4", "video_stream_index": 0, "pixel_ratio": {"num": 1, "den": 1}, "duration": 140.1600036621094, "file_size": "73319803", "video_bit_rate": 4184920, "interlaced_frame": false, "has_audio": false, "audio_stream_index": -1, "fps": {"num": 25, "den": 1}, "acodec": "", "pixel_format": 0, "top_field_first": true, "vcodec": "mpeg4", "type": "FFmpegReader", "sample_rate": 0, "has_single_image": false, "channel_layout": 4, "video_timebase": {"num": 1, "den": 25}, "video_length": "3504", "width": 1024, "audio_bit_rate": 0, "has_video": true}, "position": 43.68, "display": 0, "waveform": false, "duration": 140.1600036621094, "crop_height": {"Points": [{"interpolation": 2, "co": {"X": 1.0, "Y": -1.0}}]}, "perspective_c1_y": {"Points": [{"interpolation": 2, "co": {"X": 1.0, "Y": -1.0}}]}, "crop_width": {"Points": [{"interpolation": 2, "co": {"X": 1.0, "Y": -1.0}}]}, "perspective_c2_x": {"Points": [{"interpolation": 2, "co": {"X": 1.0, "Y": -1.0}}]}, "gravity": 4, "perspective_c4_x": {"Points": [{"interpolation": 2, "co": {"X": 1.0, "Y": -1.0}}]}, "has_audio": {"Points": [{"interpolation": 2, "co": {"X": 1.0, "Y": -1.0}}]}, "anchor": 0, "time": {"Points": [{"interpolation": 2, "co": {"X": 1.0, "Y": 1.0}}]}, "end": 140.1600036621094, "location_x": {"Points": [{"interpolation": 2, "co": {"X": 1.0, "Y": 0.0}}]}, "wave_color": {"alpha": {"Points": [{"interpolation": 0, "handle_right": {"X": 0.5, "Y": 0.0}, "handle_left": {"X": 0.5, "Y": 1.0}, "handle_type": 0, "co": {"X": 1.0, "Y": 255.0}}]}, "red": {"Points": [{"interpolation": 0, "handle_right": {"X": 0.5, "Y": 0.0}, "handle_left": {"X": 0.5, "Y": 1.0}, "handle_type": 0, "co": {"X": 1.0, "Y": 0.0}}]}, "green": {"Points": [{"interpolation": 0, "handle_right": {"X": 0.5, "Y": 0.0}, "handle_left": {"X": 0.5, "Y": 1.0}, "handle_type": 0, "co": {"X": 1.0, "Y": 123.0}}]}, "blue": {"Points": [{"interpolation": 0, "handle_right": {"X": 0.5, "Y": 0.0}, "handle_left": {"X": 0.5, "Y": 1.0}, "handle_type": 0, "co": {"X": 1.0, "Y": 255.0}}]}}, "title": "Enscape_2019-03-11-18-17-57.mp4", "perspective_c3_x": {"Points": [{"interpolation": 2, "co": {"X": 1.0, "Y": -1.0}}]}, "shear_x": {"Points": [{"interpolation": 2, "co": {"X": 1.0, "Y": 0.0}}]}, "perspective_c2_y": {"Points": [{"interpolation": 2, "co": {"X": 1.0, "Y": -1.0}}]}, "perspective_c1_x": {"Points": [{"interpolation": 2, "co": {"X": 1.0, "Y": -1.0}}]}, "scale_x": {"Points": [{"interpolation": 2, "co": {"X": 1.0, "Y": 1.0}}]}, "id": "GKX48KEXIY", "channel_mapping": {"Points": [{"interpolation": 2, "co": {"X": 1.0, "Y": -1.0}}]}, "crop_y": {"Points": [{"interpolation": 2, "co": {"X": 1.0, "Y": 0.0}}]}, "perspective_c4_y": {"Points": [{"interpolation": 2, "co": {"X": 1.0, "Y": -1.0}}]}, "shear_y": {"Points": [{"interpolation": 2, "co": {"X": 1.0, "Y": 0.0}}]}, "channel_filter": {"Points": [{"interpolation": 2, "co": {"X": 1.0, "Y": -1.0}}]}, "crop_x": {"Points": [{"interpolation": 2, "co": {"X": 1.0, "Y": 0.0}}]}, "scale": 1, "volume": {"Points": [{"interpolation": 2, "co": {"X": 1.0, "Y": 1.0}}]}, "image": "C:\\Users\\theor\\.openshot_qt\\thumbnail\\97GE16GTDV-1077.png", "location_y": {"Points": [{"interpolation": 2, "co": {"X": 1.0, "Y": 0.0}}]}, "has_video": {"Points": [{"interpolation": 2, "co": {"X": 1.0, "Y": -1.0}}]}}, "partial": false, "key": ["clips", {"id": "GKX48KEXIY"}], "type": "update", "value": {"perspective_c3_y": {"Points": [{"interpolation": 2, "co": {"X": 1.0, "Y": -1.0}}]}, "alpha": {"Points": [{"interpolation": 2, "co": {"X": 1.0, "Y": 1.0}}]}, "scale_y": {"Points": [{"interpolation": 2, "co": {"X": 1.0, "Y": 1.0}}]}, "start": 43.68, "effects": [], "file_id": "OPGYZH1CE3", "rotation": {"Points": [{"interpolation": 2, "co": {"X": 1.0, "Y": 0.0}}]}, "perspective_c1_x": {"Points": [{"interpolation": 2, "co": {"X": 1.0, "Y": -1.0}}]}, "perspective_c2_x": {"Points": [{"interpolation": 2, "co": {"X": 1.0, "Y": -1.0}}]}, "position": 43.68, "display": 0, "time": {"Points": [{"interpolation": 2, "co": {"X": 1.0, "Y": 1.0}}]}, "duration": 140.1600036621094, "crop_height": {"Points": [{"interpolation": 2, "co": {"X": 1.0, "Y": -1.0}}]}, "perspective_c1_y": {"Points": [{"interpolation": 2, "co": {"X": 1.0, "Y": -1.0}}]}, "crop_width": {"Points": [{"interpolation": 2, "co": {"X": 1.0, "Y": -1.0}}]}, "layer": 0, "gravity": 4, "perspective_c4_x": {"Points": [{"interpolation": 2, "co": {"X": 1.0, "Y": -1.0}}]}, "has_audio": {"Points": [{"interpolation": 2, "co": {"X": 1.0, "Y": -1.0}}]}, "anchor": 0, "end": 140.1600036621094, "location_x": {"Points": [{"interpolation": 2, "co": {"X": 1.0, "Y": 0.0}}]}, "wave_color": {"alpha": {"Points": [{"interpolation": 0, "handle_right": {"X": 0.5, "Y": 0.0}, "handle_left": {"X": 0.5, "Y": 1.0}, "handle_type": 0, "co": {"X": 1.0, "Y": 255.0}}]}, "red": {"Points": [{"interpolation": 0, "handle_right": {"X": 0.5, "Y": 0.0}, "handle_left": {"X": 0.5, "Y": 1.0}, "handle_type": 0, "co": {"X": 1.0, "Y": 0.0}}]}, "green": {"Points": [{"interpolation": 0, "handle_right": {"X": 0.5, "Y": 0.0}, "handle_left": {"X": 0.5, "Y": 1.0}, "handle_type": 0, "co": {"X": 1.0, "Y": 123.0}}]}, "blue": {"Points": [{"interpolation": 0, "handle_right": {"X": 0.5, "Y": 0.0}, "handle_left": {"X": 0.5, "Y": 1.0}, "handle_type": 0, "co": {"X": 1.0, "Y": 255.0}}]}}, "title": "Enscape_2019-03-11-18-17-57.mp4", "perspective_c3_x": {"Points": [{"interpolation": 2, "co": {"X": 1.0, "Y": -1.0}}]}, "shear_x": {"Points": [{"interpolation": 2, "co": {"X": 1.0, "Y": 0.0}}]}, "perspective_c2_y": {"Points": [{"interpolation": 2, "co": {"X": 1.0, "Y": -1.0}}]}, "waveform": false, "scale_x": {"Points": [{"interpolation": 2, "co": {"X": 1.0, "Y": 1.0}}]}, "id": "GKX48KEXIY", "channel_mapping": {"Points": [{"interpolation": 2, "co": {"X": 1.0, "Y": -1.0}}]}, "crop_y": {"Points": [{"interpolation": 2, "co": {"X": 1.0, "Y": 0.0}}]}, "perspective_c4_y": {"Points": [{"interpolation": 2, "co": {"X": 1.0, "Y": -1.0}}]}, "shear_y": {"Points": [{"interpolation": 2, "co": {"X": 1.0, "Y": 0.0}}]}, "channel_filter": {"Points": [{"interpolation": 2, "co": {"X": 1.0, "Y": -1.0}}]}, "crop_x": {"Points": [{"interpolation": 2, "co": {"X": 1.0, "Y": 0.0}}]}, "scale": 1, "volume": {"Points": [{"interpolation": 2, "co": {"X": 1.0, "Y": 1.0}}]}, "image": "C:\\Users\\theor\\.openshot_qt\\thumbnail\\GKX48KEXIY-1093.png", "location_y": {"Points": [{"interpolation": 2, "co": {"X": 1.0, "Y": 0.0}}]}, "has_video": {"Points": [{"interpolation": 2, "co": {"X": 1.0, "Y": -1.0}}]}}}, {"old_values": {"perspective_c3_y": {"Points": [{"interpolation": 2, "co": {"X": 1.0, "Y": -1.0}}]}, "alpha": {"Points": [{"interpolation": 2, "co": {"X": 1.0, "Y": 1.0}}]}, "scale_y": {"Points": [{"interpolation": 2, "co": {"X": 1.0, "Y": 1.0}}]}, "start": 43.04, "effects": [], "file_id": "OPGYZH1CE3", "rotation": {"Points": [{"interpolation": 2, "co": {"X": 1.0, "Y": 0.0}}]}, "perspective_c1_x": {"Points": [{"interpolation": 2, "co": {"X": 1.0, "Y": -1.0}}]}, "perspective_c2_x": {"Points": [{"interpolation": 2, "co": {"X": 1.0, "Y": -1.0}}]}, "reader": {"display_ratio": {"num": 4, "den": 3}, "audio_timebase": {"num": 1, "den": 1}, "height": 768, "path": "C:/Dropbox/GitHub/Organic_Grocery_Store/Transfer/20190311 - Animation/Enscape_2019-03-11-18-17-57.mp4", "video_stream_index": 0, "pixel_ratio": {"num": 1, "den": 1}, "duration": 140.1600036621094, "channels": 0, "video_bit_rate": 4184920, "interlaced_frame": false, "has_audio": false, "audio_stream_index": -1, "fps": {"num": 25, "den": 1}, "acodec": "", "pixel_format": 0, "top_field_first": true, "vcodec": "mpeg4", "type": "FFmpegReader", "sample_rate": 0, "file_size": "73319803", "has_single_image": false, "channel_layout": 4, "video_timebase": {"num": 1, "den": 25}, "video_length": "3504", "width": 1024, "audio_bit_rate": 0, "has_video": true}, "position": 43.04, "display": 0, "waveform": false, "duration": 140.1600036621094, "crop_height": {"Points": [{"interpolation": 2, "co": {"X": 1.0, "Y": -1.0}}]}, "perspective_c1_y": {"Points": [{"interpolation": 2, "co": {"X": 1.0, "Y": -1.0}}]}, "crop_width": {"Points": [{"interpolation": 2, "co": {"X": 1.0, "Y": -1.0}}]}, "layer": 0, "gravity": 4, "perspective_c4_x": {"Points": [{"interpolation": 2, "co": {"X": 1.0, "Y": -1.0}}]}, "has_audio": {"Points": [{"interpolation": 2, "co": {"X": 1.0, "Y": -1.0}}]}, "anchor": 0, "end": 140.1600036621094, "location_x": {"Points": [{"interpolation": 2, "co": {"X": 1.0, "Y": 0.0}}]}, "wave_color": {"alpha": {"Points": [{"interpolation": 0, "handle_right": {"X": 0.5, "Y": 0.0}, "handle_left": {"X": 0.5, "Y": 1.0}, "handle_type": 0, "co": {"X": 1.0, "Y": 255.0}}]}, "red": {"Points": [{"interpolation": 0, "handle_right": {"X": 0.5, "Y": 0.0}, "handle_left": {"X": 0.5, "Y": 1.0}, "handle_type": 0, "co": {"X": 1.0, "Y": 0.0}}]}, "green": {"Points": [{"interpolation": 0, "handle_right": {"X": 0.5, "Y": 0.0}, "handle_left": {"X": 0.5, "Y": 1.0}, "handle_type": 0, "co": {"X": 1.0, "Y": 123.0}}]}, "blue": {"Points": [{"interpolation": 0, "handle_right": {"X": 0.5, "Y": 0.0}, "handle_left": {"X": 0.5, "Y": 1.0}, "handle_type": 0, "co": {"X": 1.0, "Y": 255.0}}]}}, "title": "Enscape_2019-03-11-18-17-57.mp4", "perspective_c3_x": {"Points": [{"interpolation": 2, "co": {"X": 1.0, "Y": -1.0}}]}, "shear_x": {"Points": [{"interpolation": 2, "co": {"X": 1.0, "Y": 0.0}}]}, "perspective_c2_y": {"Points": [{"interpolation": 2, "co": {"X": 1.0, "Y": -1.0}}]}, "time": {"Points": [{"interpolation": 2, "co": {"X": 1.0, "Y": 1.0}}]}, "scale_x": {"Points": [{"interpolation": 2, "co": {"X": 1.0, "Y": 1.0}}]}, "id": "97GE16GTDV", "channel_mapping": {"Points": [{"interpolation": 2, "co": {"X": 1.0, "Y": -1.0}}]}, "crop_y": {"Points": [{"interpolation": 2, "co": {"X": 1.0, "Y": 0.0}}]}, "perspective_c4_y": {"Points": [{"interpolation": 2, "co": {"X": 1.0, "Y": -1.0}}]}, "shear_y": {"Points": [{"interpolation": 2, "co": {"X": 1.0, "Y": 0.0}}]}, "channel_filter": {"Points": [{"interpolation": 2, "co": {"X": 1.0, "Y": -1.0}}]}, "crop_x": {"Points": [{"interpolation": 2, "co": {"X": 1.0, "Y": 0.0}}]}, "scale": 1, "volume": {"Points": [{"interpolation": 2, "co": {"X": 1.0, "Y": 1.0}}]}, "image": "C:\\Users\\theor\\.openshot_qt\\thumbnail\\97GE16GTDV-1077.png", "location_y": {"Points": [{"interpolation": 2, "co": {"X": 1.0, "Y": 0.0}}]}, "has_video": {"Points": [{"interpolation": 2, "co": {"X": 1.0, "Y": -1.0}}]}}, "partial": false, "key": ["clips", {"id": "97GE16GTDV"}], "type": "update", "value": {"perspective_c3_y": {"Points": [{"interpolation": 2, "co": {"X": 1.0, "Y": -1.0}}]}, "alpha": {"Points": [{"interpolation": 2, "co": {"X": 1.0, "Y": 1.0}}]}, "scale_y": {"Points": [{"interpolation": 2, "co": {"X": 1.0, "Y": 1.0}}]}, "start": 43.04, "effects": [], "file_id": "OPGYZH1CE3", "rotation": {"Points": [{"interpolation": 2, "co": {"X": 1.0, "Y": 0.0}}]}, "perspective_c1_x": {"Points": [{"interpolation": 2, "co": {"X": 1.0, "Y": -1.0}}]}, "perspective_c2_x": {"Points": [{"interpolation": 2, "co": {"X": 1.0, "Y": -1.0}}]}, "position": 43.04, "display": 0, "time": {"Points": [{"interpolation": 2, "co": {"X": 1.0, "Y": 1.0}}]}, "duration": 140.1600036621094, "crop_height": {"Points": [{"interpolation": 2, "co": {"X": 1.0, "Y": -1.0}}]}, "perspective_c1_y": {"Points": [{"interpolation": 2, "co": {"X": 1.0, "Y": -1.0}}]}, "crop_width": {"Points": [{"interpolation": 2, "co": {"X": 1.0, "Y": -1.0}}]}, "layer": 0, "gravity": 4, "perspective_c4_x": {"Points": [{"interpolation": 2, "co": {"X": 1.0, "Y": -1.0}}]}, "has_audio": {"Points": [{"interpolation": 2, "co": {"X": 1.0, "Y": -1.0}}]}, "anchor": 0, "end": 43.68, "location_x": {"Points": [{"interpolation": 2, "co": {"X": 1.0, "Y": 0.0}}]}, "wave_color": {"alpha": {"Points": [{"interpolation": 0, "handle_right": {"X": 0.5, "Y": 0.0}, "handle_left": {"X": 0.5, "Y": 1.0}, "handle_type": 0, "co": {"X": 1.0, "Y": 255.0}}]}, "red": {"Points": [{"interpolation": 0, "handle_right": {"X": 0.5, "Y": 0.0}, "handle_left": {"X": 0.5, "Y": 1.0}, "handle_type": 0, "co": {"X": 1.0, "Y": 0.0}}]}, "green": {"Points": [{"interpolation": 0, "handle_right": {"X": 0.5, "Y": 0.0}, "handle_left": {"X": 0.5, "Y": 1.0}, "handle_type": 0, "co": {"X": 1.0, "Y": 123.0}}]}, "blue": {"Points": [{"interpolation": 0, "handle_right": {"X": 0.5, "Y": 0.0}, "handle_left": {"X": 0.5, "Y": 1.0}, "handle_type": 0, "co": {"X": 1.0, "Y": 255.0}}]}}, "title": "Enscape_2019-03-11-18-17-57.mp4", "perspective_c3_x": {"Points": [{"interpolation": 2, "co": {"X": 1.0, "Y": -1.0}}]}, "shear_x": {"Points": [{"interpolation": 2, "co": {"X": 1.0, "Y": 0.0}}]}, "perspective_c2_y": {"Points": [{"interpolation": 2, "co": {"X": 1.0, "Y": -1.0}}]}, "waveform": false, "scale_x": {"Points": [{"interpolation": 2, "co": {"X": 1.0, "Y": 1.0}}]}, "id": "97GE16GTDV", "channel_mapping": {"Points": [{"interpolation": 2, "co": {"X": 1.0, "Y": -1.0}}]}, "crop_y": {"Points": [{"interpolation": 2, "co": {"X": 1.0, "Y": 0.0}}]}, "perspective_c4_y": {"Points": [{"interpolation": 2, "co": {"X": 1.0, "Y": -1.0}}]}, "shear_y": {"Points": [{"interpolation": 2, "co": {"X": 1.0, "Y": 0.0}}]}, "channel_filter": {"Points": [{"interpolation": 2, "co": {"X": 1.0, "Y": -1.0}}]}, "crop_x": {"Points": [{"interpolation": 2, "co": {"X": 1.0, "Y": 0.0}}]}, "scale": 1, "volume": {"Points": [{"interpolation": 2, "co": {"X": 1.0, "Y": 1.0}}]}, "image": "C:\\Users\\theor\\.openshot_qt\\thumbnail\\97GE16GTDV-1077.png", "location_y": {"Points": [{"interpolation": 2, "co": {"X": 1.0, "Y": 0.0}}]}, "has_video": {"Points": [{"interpolation": 2, "co": {"X": 1.0, "Y": -1.0}}]}}}, {"old_values": {"perspective_c3_y": {"Points": [{"interpolation": 2, "co": {"X": 1.0, "Y": -1.0}}]}, "alpha": {"Points": [{"interpolation": 2, "co": {"X": 1.0, "Y": 1.0}}]}, "scale_y": {"Points": [{"interpolation": 2, "co": {"X": 1.0, "Y": 1.0}}]}, "start": 43.68, "effects": [], "file_id": "OPGYZH1CE3", "rotation": {"Points": [{"interpolation": 2, "co": {"X": 1.0, "Y": 0.0}}]}, "perspective_c1_x": {"Points": [{"interpolation": 2, "co": {"X": 1.0, "Y": -1.0}}]}, "perspective_c2_x": {"Points": [{"interpolation": 2, "co": {"X": 1.0, "Y": -1.0}}]}, "reader": {"display_ratio": {"num": 4, "den": 3}, "audio_timebase": {"num": 1, "den": 1}, "height": 768, "path": "C:/Dropbox/GitHub/Organic_Grocery_Store/Transfer/20190311 - Animation/Enscape_2019-03-11-18-17-57.mp4", "video_stream_index": 0, "pixel_ratio": {"num": 1, "den": 1}, "duration": 140.1600036621094, "channels": 0, "video_bit_rate": 4184920, "interlaced_frame": false, "has_audio": false, "audio_stream_index": -1, "fps": {"num": 25, "den": 1}, "acodec": "", "pixel_format": 0, "top_field_first": true, "vcodec": "mpeg4", "type": "FFmpegReader", "sample_rate": 0, "file_size": "73319803", "has_single_image": false, "channel_layout": 4, "video_timebase": {"num": 1, "den": 25}, "video_length": "3504", "width": 1024, "audio_bit_rate": 0, "has_video": true}, "position": 43.68, "display": 0, "waveform": false, "duration": 140.1600036621094, "crop_height": {"Points": [{"interpolation": 2, "co": {"X": 1.0, "Y": -1.0}}]}, "perspective_c1_y": {"Points": [{"interpolation": 2, "co": {"X": 1.0, "Y": -1.0}}]}, "crop_width": {"Points": [{"interpolation": 2, "co": {"X": 1.0, "Y": -1.0}}]}, "layer": 0, "gravity": 4, "perspective_c4_x": {"Points": [{"interpolation": 2, "co": {"X": 1.0, "Y": -1.0}}]}, "has_audio": {"Points": [{"interpolation": 2, "co": {"X": 1.0, "Y": -1.0}}]}, "anchor": 0, "end": 140.1600036621094, "location_x": {"Points": [{"interpolation": 2, "co": {"X": 1.0, "Y": 0.0}}]}, "wave_color": {"alpha": {"Points": [{"interpolation": 0, "handle_right": {"X": 0.5, "Y": 0.0}, "handle_left": {"X": 0.5, "Y": 1.0}, "handle_type": 0, "co": {"X": 1.0, "Y": 255.0}}]}, "green": {"Points": [{"interpolation": 0, "handle_right": {"X": 0.5, "Y": 0.0}, "handle_left": {"X": 0.5, "Y": 1.0}, "handle_type": 0, "co": {"X": 1.0, "Y": 123.0}}]}, "red": {"Points": [{"interpolation": 0, "handle_right": {"X": 0.5, "Y": 0.0}, "handle_left": {"X": 0.5, "Y": 1.0}, "handle_type": 0, "co": {"X": 1.0, "Y": 0.0}}]}, "blue": {"Points": [{"interpolation": 0, "handle_right": {"X": 0.5, "Y": 0.0}, "handle_left": {"X": 0.5, "Y": 1.0}, "handle_type": 0, "co": {"X": 1.0, "Y": 255.0}}]}}, "title": "Enscape_2019-03-11-18-17-57.mp4", "perspective_c3_x": {"Points": [{"interpolation": 2, "co": {"X": 1.0, "Y": -1.0}}]}, "shear_x": {"Points": [{"interpolation": 2, "co": {"X": 1.0, "Y": 0.0}}]}, "perspective_c2_y": {"Points": [{"interpolation": 2, "co": {"X": 1.0, "Y": -1.0}}]}, "time": {"Points": [{"interpolation": 2, "co": {"X": 1.0, "Y": 1.0}}]}, "scale_x": {"Points": [{"interpolation": 2, "co": {"X": 1.0, "Y": 1.0}}]}, "id": "GKX48KEXIY", "channel_mapping": {"Points": [{"interpolation": 2, "co": {"X": 1.0, "Y": -1.0}}]}, "crop_y": {"Points": [{"interpolation": 2, "co": {"X": 1.0, "Y": 0.0}}]}, "perspective_c4_y": {"Points": [{"interpolation": 2, "co": {"X": 1.0, "Y": -1.0}}]}, "shear_y": {"Points": [{"interpolation": 2, "co": {"X": 1.0, "Y": 0.0}}]}, "channel_filter": {"Points": [{"interpolation": 2, "co": {"X": 1.0, "Y": -1.0}}]}, "crop_x": {"Points": [{"interpolation": 2, "co": {"X": 1.0, "Y": 0.0}}]}, "scale": 1, "volume": {"Points": [{"interpolation": 2, "co": {"X": 1.0, "Y": 1.0}}]}, "image": "C:\\Users\\theor\\.openshot_qt\\thumbnail\\GKX48KEXIY-1093.png", "location_y": {"Points": [{"interpolation": 2, "co": {"X": 1.0, "Y": 0.0}}]}, "has_video": {"Points": [{"interpolation": 2, "co": {"X": 1.0, "Y": -1.0}}]}}, "partial": false, "key": ["clips", {"id": "GKX48KEXIY"}], "type": "update", "value": {"id": "GKX48KEXIY", "end": 140.1600036621094, "start": 43.68, "layer": 0, "image": "C:\\Users\\theor\\.openshot_qt\\thumbnail\\GKX48KEXIY-1093.png", "position": 64.8}}, {"old_values": {"perspective_c3_y": {"Points": [{"interpolation": 2, "co": {"X": 1.0, "Y": -1.0}}]}, "alpha": {"Points": [{"interpolation": 2, "co": {"X": 1.0, "Y": 1.0}}]}, "scale_y": {"Points": [{"interpolation": 2, "co": {"X": 1.0, "Y": 1.0}}]}, "start": 43.04, "effects": [], "file_id": "OPGYZH1CE3", "rotation": {"Points": [{"interpolation": 2, "co": {"X": 1.0, "Y": 0.0}}]}, "perspective_c1_x": {"Points": [{"interpolation": 2, "co": {"X": 1.0, "Y": -1.0}}]}, "perspective_c2_x": {"Points": [{"interpolation": 2, "co": {"X": 1.0, "Y": -1.0}}]}, "reader": {"display_ratio": {"num": 4, "den": 3}, "audio_timebase": {"num": 1, "den": 1}, "channels": 0, "height": 768, "path": "C:/Dropbox/GitHub/Organic_Grocery_Store/Transfer/20190311 - Animation/Enscape_2019-03-11-18-17-57.mp4", "video_stream_index": 0, "pixel_ratio": {"num": 1, "den": 1}, "duration": 140.1600036621094, "file_size": "73319803", "video_bit_rate": 4184920, "interlaced_frame": false, "has_audio": false, "audio_stream_index": -1, "fps": {"num": 25, "den": 1}, "acodec": "", "pixel_format": 0, "top_field_first": true, "vcodec": "mpeg4", "type": "FFmpegReader", "sample_rate": 0, "has_single_image": false, "channel_layout": 4, "video_timebase": {"num": 1, "den": 25}, "video_length": "3504", "width": 1024, "audio_bit_rate": 0, "has_video": true}, "position": 43.04, "display": 0, "waveform": false, "duration": 140.1600036621094, "crop_height": {"Points": [{"interpolation": 2, "co": {"X": 1.0, "Y": -1.0}}]}, "perspective_c1_y": {"Points": [{"interpolation": 2, "co": {"X": 1.0, "Y": -1.0}}]}, "crop_width": {"Points": [{"interpolation": 2, "co": {"X": 1.0, "Y": -1.0}}]}, "layer": 0, "gravity": 4, "perspective_c4_x": {"Points": [{"interpolation": 2, "co": {"X": 1.0, "Y": -1.0}}]}, "has_audio": {"Points": [{"interpolation": 2, "co": {"X": 1.0, "Y": -1.0}}]}, "anchor": 0, "end": 43.68, "location_x": {"Points": [{"interpolation": 2, "co": {"X": 1.0, "Y": 0.0}}]}, "wave_color": {"alpha": {"Points": [{"interpolation": 0, "handle_right": {"X": 0.5, "Y": 0.0}, "handle_left": {"X": 0.5, "Y": 1.0}, "handle_type": 0, "co": {"X": 1.0, "Y": 255.0}}]}, "green": {"Points": [{"interpolation": 0, "handle_right": {"X": 0.5, "Y": 0.0}, "handle_left": {"X": 0.5, "Y": 1.0}, "handle_type": 0, "co": {"X": 1.0, "Y": 123.0}}]}, "red": {"Points": [{"interpolation": 0, "handle_right": {"X": 0.5, "Y": 0.0}, "handle_left": {"X": 0.5, "Y": 1.0}, "handle_type": 0, "co": {"X": 1.0, "Y": 0.0}}]}, "blue": {"Points": [{"interpolation": 0, "handle_right": {"X": 0.5, "Y": 0.0}, "handle_left": {"X": 0.5, "Y": 1.0}, "handle_type": 0, "co": {"X": 1.0, "Y": 255.0}}]}}, "title": "Enscape_2019-03-11-18-17-57.mp4", "perspective_c3_x": {"Points": [{"interpolation": 2, "co": {"X": 1.0, "Y": -1.0}}]}, "shear_x": {"Points": [{"interpolation": 2, "co": {"X": 1.0, "Y": 0.0}}]}, "perspective_c2_y": {"Points": [{"interpolation": 2, "co": {"X": 1.0, "Y": -1.0}}]}, "time": {"Points": [{"interpolation": 2, "co": {"X": 1.0, "Y": 1.0}}]}, "scale_x": {"Points": [{"interpolation": 2, "co": {"X": 1.0, "Y": 1.0}}]}, "id": "97GE16GTDV", "channel_mapping": {"Points": [{"interpolation": 2, "co": {"X": 1.0, "Y": -1.0}}]}, "crop_y": {"Points": [{"interpolation": 2, "co": {"X": 1.0, "Y": 0.0}}]}, "perspective_c4_y": {"Points": [{"interpolation": 2, "co": {"X": 1.0, "Y": -1.0}}]}, "shear_y": {"Points": [{"interpolation": 2, "co": {"X": 1.0, "Y": 0.0}}]}, "channel_filter": {"Points": [{"interpolation": 2, "co": {"X": 1.0, "Y": -1.0}}]}, "crop_x": {"Points": [{"interpolation": 2, "co": {"X": 1.0, "Y": 0.0}}]}, "scale": 1, "volume": {"Points": [{"interpolation": 2, "co": {"X": 1.0, "Y": 1.0}}]}, "image": "C:\\Users\\theor\\.openshot_qt\\thumbnail\\97GE16GTDV-1077.png", "location_y": {"Points": [{"interpolation": 2, "co": {"X": 1.0, "Y": 0.0}}]}, "has_video": {"Points": [{"interpolation": 2, "co": {"X": 1.0, "Y": -1.0}}]}}, "partial": false, "key": ["clips", {"id": "97GE16GTDV"}], "type": "update", "value": {"id": "97GE16GTDV", "end": 43.68, "start": 33.6, "layer": 0, "image": "C:\\Users\\theor\\.openshot_qt\\thumbnail\\97GE16GTDV-841.png", "position": 33.6}}, {"old_values": {"perspective_c3_y": {"Points": [{"interpolation": 2, "co": {"X": 1.0, "Y": -1.0}}]}, "alpha": {"Points": [{"interpolation": 2, "co": {"X": 1.0, "Y": 1.0}}]}, "scale_y": {"Points": [{"interpolation": 2, "co": {"X": 1.0, "Y": 1.0}}]}, "start": 33.6, "effects": [], "file_id": "OPGYZH1CE3", "rotation": {"Points": [{"interpolation": 2, "co": {"X": 1.0, "Y": 0.0}}]}, "perspective_c1_x": {"Points": [{"interpolation": 2, "co": {"X": 1.0, "Y": -1.0}}]}, "perspective_c2_x": {"Points": [{"interpolation": 2, "co": {"X": 1.0, "Y": -1.0}}]}, "reader": {"display_ratio": {"num": 4, "den": 3}, "audio_timebase": {"num": 1, "den": 1}, "channels": 0, "height": 768, "path": "C:/Dropbox/GitHub/Organic_Grocery_Store/Transfer/20190311 - Animation/Enscape_2019-03-11-18-17-57.mp4", "video_stream_index": 0, "pixel_ratio": {"num": 1, "den": 1}, "duration": 140.1600036621094, "file_size": "73319803", "video_bit_rate": 4184920, "interlaced_frame": false, "has_audio": false, "audio_stream_index": -1, "fps": {"num": 25, "den": 1}, "acodec": "", "pixel_format": 0, "top_field_first": true, "vcodec": "mpeg4", "type": "FFmpegReader", "sample_rate": 0, "has_single_image": false, "channel_layout": 4, "video_timebase": {"num": 1, "den": 25}, "video_length": "3504", "width": 1024, "audio_bit_rate": 0, "has_video": true}, "position": 33.6, "display": 0, "waveform": false, "duration": 140.1600036621094, "crop_height": {"Points": [{"interpolation": 2, "co": {"X": 1.0, "Y": -1.0}}]}, "perspective_c1_y": {"Points": [{"interpolation": 2, "co": {"X": 1.0, "Y": -1.0}}]}, "crop_width": {"Points": [{"interpolation": 2, "co": {"X": 1.0, "Y": -1.0}}]}, "layer": 0, "gravity": 4, "perspective_c4_x": {"Points": [{"interpolation": 2, "co": {"X": 1.0, "Y": -1.0}}]}, "has_audio": {"Points": [{"interpolation": 2, "co": {"X": 1.0, "Y": -1.0}}]}, "anchor": 0, "end": 43.68, "location_x": {"Points": [{"interpolation": 2, "co": {"X": 1.0, "Y": 0.0}}]}, "wave_color": {"alpha": {"Points": [{"interpolation": 0, "handle_right": {"X": 0.5, "Y": 0.0}, "handle_left": {"X": 0.5, "Y": 1.0}, "handle_type": 0, "co": {"X": 1.0, "Y": 255.0}}]}, "green": {"Points": [{"interpolation": 0, "handle_right": {"X": 0.5, "Y": 0.0}, "handle_left": {"X": 0.5, "Y": 1.0}, "handle_type": 0, "co": {"X": 1.0, "Y": 123.0}}]}, "red": {"Points": [{"interpolation": 0, "handle_right": {"X": 0.5, "Y": 0.0}, "handle_left": {"X": 0.5, "Y": 1.0}, "handle_type": 0, "co": {"X": 1.0, "Y": 0.0}}]}, "blue": {"Points": [{"interpolation": 0, "handle_right": {"X": 0.5, "Y": 0.0}, "handle_left": {"X": 0.5, "Y": 1.0}, "handle_type": 0, "co": {"X": 1.0, "Y": 255.0}}]}}, "title": "Enscape_2019-03-11-18-17-57.mp4", "perspective_c3_x": {"Points": [{"interpolation": 2, "co": {"X": 1.0, "Y": -1.0}}]}, "shear_x": {"Points": [{"interpolation": 2, "co": {"X": 1.0, "Y": 0.0}}]}, "perspective_c2_y": {"Points": [{"interpolation": 2, "co": {"X": 1.0, "Y": -1.0}}]}, "time": {"Points": [{"interpolation": 2, "co": {"X": 1.0, "Y": 1.0}}]}, "scale_x": {"Points": [{"interpolation": 2, "co": {"X": 1.0, "Y": 1.0}}]}, "id": "97GE16GTDV", "channel_mapping": {"Points": [{"interpolation": 2, "co": {"X": 1.0, "Y": -1.0}}]}, "crop_y": {"Points": [{"interpolation": 2, "co": {"X": 1.0, "Y": 0.0}}]}, "perspective_c4_y": {"Points": [{"interpolation": 2, "co": {"X": 1.0, "Y": -1.0}}]}, "shear_y": {"Points": [{"interpolation": 2, "co": {"X": 1.0, "Y": 0.0}}]}, "channel_filter": {"Points": [{"interpolation": 2, "co": {"X": 1.0, "Y": -1.0}}]}, "crop_x": {"Points": [{"interpolation": 2, "co": {"X": 1.0, "Y": 0.0}}]}, "scale": 1, "volume": {"Points": [{"interpolation": 2, "co": {"X": 1.0, "Y": 1.0}}]}, "image": "C:\\Users\\theor\\.openshot_qt\\thumbnail\\97GE16GTDV-841.png", "location_y": {"Points": [{"interpolation": 2, "co": {"X": 1.0, "Y": 0.0}}]}, "has_video": {"Points": [{"interpolation": 2, "co": {"X": 1.0, "Y": -1.0}}]}}, "partial": false, "key": ["clips", {"id": "97GE16GTDV"}], "type": "delete", "value": null}, {"old_values": {"perspective_c3_y": {"Points": [{"interpolation": 2, "co": {"X": 1.0, "Y": -1.0}}]}, "alpha": {"Points": [{"interpolation": 2, "co": {"X": 1.0, "Y": 1.0}}]}, "scale_y": {"Points": [{"interpolation": 2, "co": {"X": 1.0, "Y": 1.0}}]}, "start": 43.68, "effects": [], "file_id": "OPGYZH1CE3", "rotation": {"Points": [{"interpolation": 2, "co": {"X": 1.0, "Y": 0.0}}]}, "perspective_c1_x": {"Points": [{"interpolation": 2, "co": {"X": 1.0, "Y": -1.0}}]}, "perspective_c2_x": {"Points": [{"interpolation": 2, "co": {"X": 1.0, "Y": -1.0}}]}, "reader": {"display_ratio": {"num": 4, "den": 3}, "audio_timebase": {"num": 1, "den": 1}, "height": 768, "path": "C:/Dropbox/GitHub/Organic_Grocery_Store/Transfer/20190311 - Animation/Enscape_2019-03-11-18-17-57.mp4", "video_stream_index": 0, "pixel_ratio": {"num": 1, "den": 1}, "duration": 140.1600036621094, "channels": 0, "video_bit_rate": 4184920, "interlaced_frame": false, "has_audio": false, "audio_stream_index": -1, "fps": {"num": 25, "den": 1}, "acodec": "", "pixel_format": 0, "top_field_first": true, "vcodec": "mpeg4", "type": "FFmpegReader", "sample_rate": 0, "file_size": "73319803", "has_single_image": false, "channel_layout": 4, "video_timebase": {"num": 1, "den": 25}, "video_length": "3504", "width": 1024, "audio_bit_rate": 0, "has_video": true}, "position": 64.8, "display": 0, "waveform": false, "duration": 140.1600036621094, "crop_height": {"Points": [{"interpolation": 2, "co": {"X": 1.0, "Y": -1.0}}]}, "perspective_c1_y": {"Points": [{"interpolation": 2, "co": {"X": 1.0, "Y": -1.0}}]}, "crop_width": {"Points": [{"interpolation": 2, "co": {"X": 1.0, "Y": -1.0}}]}, "layer": 0, "gravity": 4, "perspective_c4_x": {"Points": [{"interpolation": 2, "co": {"X": 1.0, "Y": -1.0}}]}, "has_audio": {"Points": [{"interpolation": 2, "co": {"X": 1.0, "Y": -1.0}}]}, "anchor": 0, "end": 140.1600036621094, "location_x": {"Points": [{"interpolation": 2, "co": {"X": 1.0, "Y": 0.0}}]}, "wave_color": {"alpha": {"Points": [{"interpolation": 0, "handle_right": {"X": 0.5, "Y": 0.0}, "handle_left": {"X": 0.5, "Y": 1.0}, "handle_type": 0, "co": {"X": 1.0, "Y": 255.0}}]}, "green": {"Points": [{"interpolation": 0, "handle_right": {"X": 0.5, "Y": 0.0}, "handle_left": {"X": 0.5, "Y": 1.0}, "handle_type": 0, "co": {"X": 1.0, "Y": 123.0}}]}, "red": {"Points": [{"interpolation": 0, "handle_right": {"X": 0.5, "Y": 0.0}, "handle_left": {"X": 0.5, "Y": 1.0}, "handle_type": 0, "co": {"X": 1.0, "Y": 0.0}}]}, "blue": {"Points": [{"interpolation": 0, "handle_right": {"X": 0.5, "Y": 0.0}, "handle_left": {"X": 0.5, "Y": 1.0}, "handle_type": 0, "co": {"X": 1.0, "Y": 255.0}}]}}, "title": "Enscape_2019-03-11-18-17-57.mp4", "perspective_c3_x": {"Points": [{"interpolation": 2, "co": {"X": 1.0, "Y": -1.0}}]}, "shear_x": {"Points": [{"interpolation": 2, "co": {"X": 1.0, "Y": 0.0}}]}, "perspective_c2_y": {"Points": [{"interpolation": 2, "co": {"X": 1.0, "Y": -1.0}}]}, "time": {"Points": [{"interpolation": 2, "co": {"X": 1.0, "Y": 1.0}}]}, "scale_x": {"Points": [{"interpolation": 2, "co": {"X": 1.0, "Y": 1.0}}]}, "id": "GKX48KEXIY", "channel_mapping": {"Points": [{"interpolation": 2, "co": {"X": 1.0, "Y": -1.0}}]}, "crop_y": {"Points": [{"interpolation": 2, "co": {"X": 1.0, "Y": 0.0}}]}, "perspective_c4_y": {"Points": [{"interpolation": 2, "co": {"X": 1.0, "Y": -1.0}}]}, "shear_y": {"Points": [{"interpolation": 2, "co": {"X": 1.0, "Y": 0.0}}]}, "channel_filter": {"Points": [{"interpolation": 2, "co": {"X": 1.0, "Y": -1.0}}]}, "crop_x": {"Points": [{"interpolation": 2, "co": {"X": 1.0, "Y": 0.0}}]}, "scale": 1, "volume": {"Points": [{"interpolation": 2, "co": {"X": 1.0, "Y": 1.0}}]}, "image": "C:\\Users\\theor\\.openshot_qt\\thumbnail\\GKX48KEXIY-1093.png", "location_y": {"Points": [{"interpolation": 2, "co": {"X": 1.0, "Y": 0.0}}]}, "has_video": {"Points": [{"interpolation": 2, "co": {"X": 1.0, "Y": -1.0}}]}}, "partial": false, "key": ["clips", {"id": "GKX48KEXIY"}], "type": "update", "value": {"id": "GKX48KEXIY", "end": 140.1600036621094, "start": 43.68, "layer": 0, "image": "C:\\Users\\theor\\.openshot_qt\\thumbnail\\GKX48KEXIY-1093.png", "position": 43.04}}, {"old_values": {"perspective_c3_y": {"Points": [{"interpolation": 2, "co": {"X": 1.0, "Y": -1.0}}]}, "alpha": {"Points": [{"interpolation": 2, "co": {"X": 1.0, "Y": 1.0}}]}, "shear_x": {"Points": [{"interpolation": 2, "co": {"X": 1.0, "Y": 0.0}}]}, "start": 0, "perspective_c4_x": {"Points": [{"interpolation": 2, "co": {"X": 1.0, "Y": -1.0}}]}, "effects": [], "channel_mapping": {"Points": [{"interpolation": 2, "co": {"X": 1.0, "Y": -1.0}}]}, "rotation": {"Points": [{"interpolation": 2, "co": {"X": 1.0, "Y": 0.0}}]}, "perspective_c1_x": {"Points": [{"interpolation": 2, "co": {"X": 1.0, "Y": -1.0}}]}, "layer": 0, "reader": {"display_ratio": {"num": 4, "den": 3}, "audio_timebase": {"num": 1, "den": 1}, "channels": 0, "height": 768, "path": "C:/Dropbox/GitHub/Organic_Grocery_Store/Transfer/20190311 - Animation/Enscape_2019-03-11-18-17-57.mp4", "video_stream_index": 0, "pixel_ratio": {"num": 1, "den": 1}, "duration": 140.1600036621094, "file_size": "73319803", "video_bit_rate": 4184920, "interlaced_frame": false, "has_audio": false, "audio_stream_index": -1, "fps": {"num": 25, "den": 1}, "acodec": "", "pixel_format": 0, "top_field_first": true, "vcodec": "mpeg4", "type": "FFmpegReader", "sample_rate": 0, "has_single_image": false, "channel_layout": 4, "video_timebase": {"num": 1, "den": 25}, "video_length": "3504", "width": 1024, "audio_bit_rate": 0, "has_video": true}, "position": 0, "display": 0, "waveform": false, "duration": 140.1600036621094, "crop_height": {"Points": [{"interpolation": 2, "co": {"X": 1.0, "Y": -1.0}}]}, "perspective_c1_y": {"Points": [{"interpolation": 2, "co": {"X": 1.0, "Y": -1.0}}]}, "crop_width": {"Points": [{"interpolation": 2, "co": {"X": 1.0, "Y": -1.0}}]}, "perspective_c2_x": {"Points": [{"interpolation": 2, "co": {"X": 1.0, "Y": -1.0}}]}, "gravity": 4, "file_id": "OPGYZH1CE3", "has_audio": {"Points": [{"interpolation": 2, "co": {"X": 1.0, "Y": -1.0}}]}, "anchor": 0, "end": 43.04, "location_x": {"Points": [{"interpolation": 2, "co": {"X": 1.0, "Y": 0.0}}]}, "wave_color": {"alpha": {"Points": [{"interpolation": 0, "handle_right": {"X": 0.5, "Y": 0.0}, "handle_left": {"X": 0.5, "Y": 1.0}, "handle_type": 0, "co": {"X": 1.0, "Y": 255.0}}]}, "red": {"Points": [{"interpolation": 0, "handle_right": {"X": 0.5, "Y": 0.0}, "handle_left": {"X": 0.5, "Y": 1.0}, "handle_type": 0, "co": {"X": 1.0, "Y": 0.0}}]}, "green": {"Points": [{"interpolation": 0, "handle_right": {"X": 0.5, "Y": 0.0}, "handle_left": {"X": 0.5, "Y": 1.0}, "handle_type": 0, "co": {"X": 1.0, "Y": 123.0}}]}, "blue": {"Points": [{"interpolation": 0, "handle_right": {"X": 0.5, "Y": 0.0}, "handle_left": {"X": 0.5, "Y": 1.0}, "handle_type": 0, "co": {"X": 1.0, "Y": 255.0}}]}}, "title": "Enscape_2019-03-11-18-17-57.mp4", "perspective_c3_x": {"Points": [{"interpolation": 2, "co": {"X": 1.0, "Y": -1.0}}]}, "scale_y": {"Points": [{"interpolation": 2, "co": {"X": 1.0, "Y": 1.0}}]}, "perspective_c2_y": {"Points": [{"interpolation": 2, "co": {"X": 1.0, "Y": -1.0}}]}, "time": {"Points": [{"interpolation": 2, "co": {"X": 1.0, "Y": 1.0}}]}, "scale_x": {"Points": [{"interpolation": 2, "co": {"X": 1.0, "Y": 1.0}}]}, "volume": {"Points": [{"interpolation": 2, "co": {"X": 1.0, "Y": 1.0}}]}, "id": "GP7FPK11R1", "crop_y": {"Points": [{"interpolation": 2, "co": {"X": 1.0, "Y": 0.0}}]}, "perspective_c4_y": {"Points": [{"interpolation": 2, "co": {"X": 1.0, "Y": -1.0}}]}, "channel_filter": {"Points": [{"interpolation": 2, "co": {"X": 1.0, "Y": -1.0}}]}, "crop_x": {"Points": [{"interpolation": 2, "co": {"X": 1.0, "Y": 0.0}}]}, "scale": 1, "shear_y": {"Points": [{"interpolation": 2, "co": {"X": 1.0, "Y": 0.0}}]}, "image": "C:\\Users\\theor\\.openshot_qt\\thumbnail\\OPGYZH1CE3.png", "location_y": {"Points": [{"interpolation": 2, "co": {"X": 1.0, "Y": 0.0}}]}, "has_video": {"Points": [{"interpolation": 2, "co": {"X": 1.0, "Y": -1.0}}]}}, "partial": false, "key": ["clips", {"id": "GP7FPK11R1"}], "type": "update", "value": {"perspective_c3_y": {"Points": [{"interpolation": 2, "co": {"X": 1.0, "Y": -1.0}}]}, "alpha": {"Points": [{"interpolation": 2, "co": {"X": 1.0, "Y": 1.0}}]}, "scale_y": {"Points": [{"interpolation": 2, "co": {"X": 1.0, "Y": 1.0}}]}, "start": 0, "crop_y": {"Points": [{"interpolation": 2, "co": {"X": 1.0, "Y": 0.0}}]}, "perspective_c4_x": {"Points": [{"interpolation": 2, "co": {"X": 1.0, "Y": -1.0}}]}, "effects": [], "channel_mapping": {"Points": [{"interpolation": 2, "co": {"X": 1.0, "Y": -1.0}}]}, "rotation": {"Points": [{"interpolation": 2, "co": {"X": 1.0, "Y": 0.0}}]}, "layer": 0, "position": 0, "display": 0, "perspective_c1_x": {"Points": [{"interpolation": 2, "co": {"X": 1.0, "Y": -1.0}}]}, "duration": 70.0, "crop_height": {"Points": [{"interpolation": 2, "co": {"X": 1.0, "Y": -1.0}}]}, "perspective_c1_y": {"Points": [{"interpolation": 2, "co": {"X": 1.0, "Y": -1.0}}]}, "crop_width": {"Points": [{"interpolation": 2, "co": {"X": 1.0, "Y": -1.0}}]}, "perspective_c2_x": {"Points": [{"interpolation": 2, "co": {"X": 1.0, "Y": -1.0}}]}, "gravity": 4, "file_id": "OPGYZH1CE3", "has_audio": {"Points": [{"interpolation": 2, "co": {"X": 1.0, "Y": -1.0}}]}, "anchor": 0, "end": 21.541666666666668, "location_x": {"Points": [{"interpolation": 2, "co": {"X": 1.0, "Y": 0.0}}]}, "wave_color": {"alpha": {"Points": [{"interpolation": 0, "handle_right": {"X": 0.5, "Y": 0.0}, "handle_left": {"X": 0.5, "Y": 1.0}, "handle_type": 0, "co": {"X": 1.0, "Y": 255.0}}]}, "red": {"Points": [{"interpolation": 0, "handle_right": {"X": 0.5, "Y": 0.0}, "handle_left": {"X": 0.5, "Y": 1.0}, "handle_type": 0, "co": {"X": 1.0, "Y": 0.0}}]}, "green": {"Points": [{"interpolation": 0, "handle_right": {"X": 0.5, "Y": 0.0}, "handle_left": {"X": 0.5, "Y": 1.0}, "handle_type": 0, "co": {"X": 1.0, "Y": 123.0}}]}, "blue": {"Points": [{"interpolation": 0, "handle_right": {"X": 0.5, "Y": 0.0}, "handle_left": {"X": 0.5, "Y": 1.0}, "handle_type": 0, "co": {"X": 1.0, "Y": 255.0}}]}}, "title": "Enscape_2019-03-11-18-17-57.mp4", "perspective_c3_x": {"Points": [{"interpolation": 2, "co": {"X": 1.0, "Y": -1.0}}]}, "shear_x": {"Points": [{"interpolation": 2, "co": {"X": 1.0, "Y": 0.0}}]}, "perspective_c2_y": {"Points": [{"interpolation": 2, "co": {"X": 1.0, "Y": -1.0}}]}, "waveform": false, "scale_x": {"Points": [{"interpolation": 2, "co": {"X": 1.0, "Y": 1.0}}]}, "volume": {"Points": [{"interpolation": 2, "co": {"X": 1.0, "Y": 1.0}}]}, "id": "GP7FPK11R1", "time": {"Points": [{"interpolation": 1, "co": {"X": 1.0, "Y": 1.0}}, {"interpolation": 1, "co": {"X": 517.0, "Y": 1033.0}}]}, "perspective_c4_y": {"Points": [{"interpolation": 2, "co": {"X": 1.0, "Y": -1.0}}]}, "shear_y": {"Points": [{"interpolation": 2, "co": {"X": 1.0, "Y": 0.0}}]}, "channel_filter": {"Points": [{"interpolation": 2, "co": {"X": 1.0, "Y": -1.0}}]}, "crop_x": {"Points": [{"interpolation": 2, "co": {"X": 1.0, "Y": 0.0}}]}, "scale": 1, "image": "C:\\Users\\theor\\.openshot_qt\\thumbnail\\OPGYZH1CE3.png", "location_y": {"Points": [{"interpolation": 2, "co": {"X": 1.0, "Y": 0.0}}]}, "has_video": {"Points": [{"interpolation": 2, "co": {"X": 1.0, "Y": -1.0}}]}}}, {"old_values": {"perspective_c3_y": {"Points": [{"interpolation": 2, "co": {"X": 1.0, "Y": -1.0}}]}, "alpha": {"Points": [{"interpolation": 2, "co": {"X": 1.0, "Y": 1.0}}]}, "scale_y": {"Points": [{"interpolation": 2, "co": {"X": 1.0, "Y": 1.0}}]}, "start": 43.68, "effects": [], "file_id": "OPGYZH1CE3", "rotation": {"Points": [{"interpolation": 2, "co": {"X": 1.0, "Y": 0.0}}]}, "perspective_c1_x": {"Points": [{"interpolation": 2, "co": {"X": 1.0, "Y": -1.0}}]}, "perspective_c2_x": {"Points": [{"interpolation": 2, "co": {"X": 1.0, "Y": -1.0}}]}, "reader": {"display_ratio": {"num": 4, "den": 3}, "audio_timebase": {"num": 1, "den": 1}, "channels": 0, "height": 768, "path": "C:/Dropbox/GitHub/Organic_Grocery_Store/Transfer/20190311 - Animation/Enscape_2019-03-11-18-17-57.mp4", "video_stream_index": 0, "pixel_ratio": {"num": 1, "den": 1}, "duration": 140.1600036621094, "file_size": "73319803", "video_bit_rate": 4184920, "interlaced_frame": false, "has_audio": false, "audio_stream_index": -1, "fps": {"num": 25, "den": 1}, "acodec": "", "pixel_format": 0, "top_field_first": true, "vcodec": "mpeg4", "type": "FFmpegReader", "sample_rate": 0, "has_single_image": false, "channel_layout": 4, "video_timebase": {"num": 1, "den": 25}, "video_length": "3504", "width": 1024, "audio_bit_rate": 0, "has_video": true}, "position": 43.04, "display": 0, "waveform": false, "duration": 140.1600036621094, "crop_height": {"Points": [{"interpolation": 2, "co": {"X": 1.0, "Y": -1.0}}]}, "perspective_c1_y": {"Points": [{"interpolation": 2, "co": {"X": 1.0, "Y": -1.0}}]}, "crop_width": {"Points": [{"interpolation": 2, "co": {"X": 1.0, "Y": -1.0}}]}, "layer": 0, "gravity": 4, "perspective_c4_x": {"Points": [{"interpolation": 2, "co": {"X": 1.0, "Y": -1.0}}]}, "has_audio": {"Points": [{"interpolation": 2, "co": {"X": 1.0, "Y": -1.0}}]}, "anchor": 0, "end": 140.1600036621094, "location_x": {"Points": [{"interpolation": 2, "co": {"X": 1.0, "Y": 0.0}}]}, "wave_color": {"alpha": {"Points": [{"interpolation": 0, "handle_right": {"X": 0.5, "Y": 0.0}, "handle_left": {"X": 0.5, "Y": 1.0}, "handle_type": 0, "co": {"X": 1.0, "Y": 255.0}}]}, "green": {"Points": [{"interpolation": 0, "handle_right": {"X": 0.5, "Y": 0.0}, "handle_left": {"X": 0.5, "Y": 1.0}, "handle_type": 0, "co": {"X": 1.0, "Y": 123.0}}]}, "red": {"Points": [{"interpolation": 0, "handle_right": {"X": 0.5, "Y": 0.0}, "handle_left": {"X": 0.5, "Y": 1.0}, "handle_type": 0, "co": {"X": 1.0, "Y": 0.0}}]}, "blue": {"Points": [{"interpolation": 0, "handle_right": {"X": 0.5, "Y": 0.0}, "handle_left": {"X": 0.5, "Y": 1.0}, "handle_type": 0, "co": {"X": 1.0, "Y": 255.0}}]}}, "title": "Enscape_2019-03-11-18-17-57.mp4", "perspective_c3_x": {"Points": [{"interpolation": 2, "co": {"X": 1.0, "Y": -1.0}}]}, "shear_x": {"Points": [{"interpolation": 2, "co": {"X": 1.0, "Y": 0.0}}]}, "perspective_c2_y": {"Points": [{"interpolation": 2, "co": {"X": 1.0, "Y": -1.0}}]}, "time": {"Points": [{"interpolation": 2, "co": {"X": 1.0, "Y": 1.0}}]}, "scale_x": {"Points": [{"interpolation": 2, "co": {"X": 1.0, "Y": 1.0}}]}, "id": "GKX48KEXIY", "channel_mapping": {"Points": [{"interpolation": 2, "co": {"X": 1.0, "Y": -1.0}}]}, "crop_y": {"Points": [{"interpolation": 2, "co": {"X": 1.0, "Y": 0.0}}]}, "perspective_c4_y": {"Points": [{"interpolation": 2, "co": {"X": 1.0, "Y": -1.0}}]}, "shear_y": {"Points": [{"interpolation": 2, "co": {"X": 1.0, "Y": 0.0}}]}, "channel_filter": {"Points": [{"interpolation": 2, "co": {"X": 1.0, "Y": -1.0}}]}, "crop_x": {"Points": [{"interpolation": 2, "co": {"X": 1.0, "Y": 0.0}}]}, "scale": 1, "volume": {"Points": [{"interpolation": 2, "co": {"X": 1.0, "Y": 1.0}}]}, "image": "C:\\Users\\theor\\.openshot_qt\\thumbnail\\GKX48KEXIY-1093.png", "location_y": {"Points": [{"interpolation": 2, "co": {"X": 1.0, "Y": 0.0}}]}, "has_video": {"Points": [{"interpolation": 2, "co": {"X": 1.0, "Y": -1.0}}]}}, "partial": false, "key": ["clips", {"id": "GKX48KEXIY"}], "type": "update", "value": {"id": "GKX48KEXIY", "end": 140.1600036621094, "start": 43.68, "layer": 0, "image": "C:\\Users\\theor\\.openshot_qt\\thumbnail\\GKX48KEXIY-1093.png", "position": 21.54}}], "redo": []}, "progress": [], "playhead_position": 0, "profile": "HDV 720 24p", "layers": [{"number": 0, "id": "L0", "y": 0, "lock": false, "label": ""}, {"number": 1, "id": "L1", "y": 0, "lock": false, "label": ""}, {"number": 2, "id": "L2", "y": 0, "lock": false, "label": ""}, {"number": 3, "id": "L3", "y": 0, "lock": false, "label": ""}, {"number": 4, "id": "L4", "y": 0, "lock": false, "label": ""}], "id": "T0", "channel_layout": 3, "scale": 16, "width": 1280, "version": {"openshot-qt": "2.4.0", "libopenshot": "0.1.8"}, "files": [{"display_ratio": {"num": 4, "den": 3}, "audio_timebase": {"num": 1, "den": 1}, "height": 768, "path": "Enscape_2019-03-11-18-17-57.mp4", "video_stream_index": 0, "pixel_ratio": {"num": 1, "den": 1}, "duration": 140.1600036621094, "channels": 0, "media_type": "video", "video_bit_rate": 4184920, "interlaced_frame": false, "has_audio": false, "audio_stream_index": -1, "fps": {"num": 25, "den": 1}, "acodec": "", "pixel_format": 0, "top_field_first": true, "vcodec": "mpeg4", "type": "FFmpegReader", "sample_rate": 0, "id": "OPGYZH1CE3", "file_size": "73319803", "has_single_image": false, "channel_layout": 4, "video_timebase": {"num": 1, "den": 25}, "video_length": "3504", "width": 1024, "audio_bit_rate": 0, "has_video": true}, {"display_ratio": {"num": 1, "den": 1}, "audio_timebase": {"num": 1, "den": 14112000}, "height": 480, "path": "..\\..\\..\\..\\..\\Users\\theor\\Music\\Replay Music Recordings\\Replay Music 2019-03-12\\Not Recognized-Track2.mp3", "video_stream_index": -1, "pixel_ratio": {"num": 1, "den": 1}, "duration": 118.0559997558594, "channels": 2, "media_type": "audio", "video_bit_rate": 0, "interlaced_frame": false, "has_audio": true, "audio_stream_index": 0, "fps": {"num": 24, "den": 1}, "acodec": "mp3", "pixel_format": -1, "top_field_first": true, "vcodec": "", "type": "FFmpegReader", "sample_rate": 48000, "id": "5TEJ096RKR", "file_size": "1890566", "has_single_image": false, "channel_layout": 3, "video_timebase": {"num": 1, "den": 24}, "video_length": "2833", "width": 720, "audio_bit_rate": 128000, "has_video": false}]}